<?xml version="1.0" encoding="UTF-8" standalone="no"?>
<!DOCTYPE svg PUBLIC "-//W3C//DTD SVG 1.1//EN"
 "http://www.w3.org/Graphics/SVG/1.1/DTD/svg11.dtd">
<!-- Generated by graphviz version 6.0.1 (0)
 -->
<!-- Title: snakemake_dag Pages: 1 -->
<svg width="728pt" height="404pt"
 viewBox="0.00 0.00 727.50 404.00" xmlns="http://www.w3.org/2000/svg" xmlns:xlink="http://www.w3.org/1999/xlink">
<g id="graph0" class="graph" transform="scale(1 1) rotate(0) translate(4 400)">
<title>snakemake_dag</title>
<polygon fill="white" stroke="none" points="-4,4 -4,-400 723.5,-400 723.5,4 -4,4"/>
<!-- 0 -->
<g id="node1" class="node">
<title>0</title>
<path fill="none" stroke="#56c9d8" stroke-width="2" d="M281.5,-36C281.5,-36 251.5,-36 251.5,-36 245.5,-36 239.5,-30 239.5,-24 239.5,-24 239.5,-12 239.5,-12 239.5,-6 245.5,0 251.5,0 251.5,0 281.5,0 281.5,0 287.5,0 293.5,-6 293.5,-12 293.5,-12 293.5,-24 293.5,-24 293.5,-30 287.5,-36 281.5,-36"/>
<text text-anchor="middle" x="266.5" y="-15.5" font-family="sans" font-size="10.00">all</text>
</g>
<!-- 1 -->
<g id="node2" class="node">
<title>1</title>
<path fill="none" stroke="#d87556" stroke-width="2" d="M79,-324C79,-324 12,-324 12,-324 6,-324 0,-318 0,-312 0,-312 0,-300 0,-300 0,-294 6,-288 12,-288 12,-288 79,-288 79,-288 85,-288 91,-294 91,-300 91,-300 91,-312 91,-312 91,-318 85,-324 79,-324"/>
<text text-anchor="middle" x="45.5" y="-303.5" font-family="sans" font-size="10.00">seqkit_stats_raw</text>
</g>
<!-- 1&#45;&gt;0 -->
<g id="edge1" class="edge">
<title>1&#45;&gt;0</title>
<path fill="none" stroke="grey" stroke-width="2" d="M41.85,-287.91C39.82,-277.57 37.52,-264.09 36.5,-252 32.4,-203.36 32.35,-186.42 56.5,-144 78.43,-105.48 88.5,-96.4 125.5,-72 157.72,-50.75 199.66,-36.38 229.4,-28.03"/>
<polygon fill="grey" stroke="grey" stroke-width="2" points="230.64,-31.32 239.37,-25.32 228.8,-24.56 230.64,-31.32"/>
</g>
<!-- 2 -->
<g id="node3" class="node">
<title>2</title>
<path fill="none" stroke="#70d856" stroke-width="2" d="M135.5,-396C135.5,-396 65.5,-396 65.5,-396 59.5,-396 53.5,-390 53.5,-384 53.5,-384 53.5,-372 53.5,-372 53.5,-366 59.5,-360 65.5,-360 65.5,-360 135.5,-360 135.5,-360 141.5,-360 147.5,-366 147.5,-372 147.5,-372 147.5,-384 147.5,-384 147.5,-390 141.5,-396 135.5,-396"/>
<text text-anchor="middle" x="100.5" y="-375.5" font-family="sans" font-size="10.00">import_input_data</text>
</g>
<!-- 2&#45;&gt;1 -->
<g id="edge10" class="edge">
<title>2&#45;&gt;1</title>
<path fill="none" stroke="grey" stroke-width="2" d="M86.9,-359.7C80.38,-351.39 72.43,-341.28 65.25,-332.14"/>
<polygon fill="grey" stroke="grey" stroke-width="2" points="67.87,-329.81 58.94,-324.1 62.37,-334.13 67.87,-329.81"/>
</g>
<!-- 5 -->
<g id="node6" class="node">
<title>5</title>
<path fill="none" stroke="#56d892" stroke-width="2" d="M219.5,-324C219.5,-324 149.5,-324 149.5,-324 143.5,-324 137.5,-318 137.5,-312 137.5,-312 137.5,-300 137.5,-300 137.5,-294 143.5,-288 149.5,-288 149.5,-288 219.5,-288 219.5,-288 225.5,-288 231.5,-294 231.5,-300 231.5,-300 231.5,-312 231.5,-312 231.5,-318 225.5,-324 219.5,-324"/>
<text text-anchor="middle" x="184.5" y="-303.5" font-family="sans" font-size="10.00">bbduk_trim_reads</text>
</g>
<!-- 2&#45;&gt;5 -->
<g id="edge13" class="edge">
<title>2&#45;&gt;5</title>
<path fill="none" stroke="grey" stroke-width="2" d="M121.26,-359.7C131.74,-350.97 144.61,-340.24 156,-330.75"/>
<polygon fill="grey" stroke="grey" stroke-width="2" points="158.53,-333.19 163.97,-324.1 154.05,-327.82 158.53,-333.19"/>
</g>
<!-- 3 -->
<g id="node4" class="node">
<title>3</title>
<path fill="none" stroke="#d8cb56" stroke-width="2" d="M123,-180C123,-180 78,-180 78,-180 72,-180 66,-174 66,-168 66,-168 66,-156 66,-156 66,-150 72,-144 78,-144 78,-144 123,-144 123,-144 129,-144 135,-150 135,-156 135,-156 135,-168 135,-168 135,-174 129,-180 123,-180"/>
<text text-anchor="middle" x="100.5" y="-159.5" font-family="sans" font-size="10.00">multiqc_raw</text>
</g>
<!-- 3&#45;&gt;0 -->
<g id="edge4" class="edge">
<title>3&#45;&gt;0</title>
<path fill="none" stroke="grey" stroke-width="2" d="M108.34,-143.98C118.03,-124.49 136.14,-92.6 159.5,-72 179.95,-53.97 207.64,-40.47 229.72,-31.61"/>
<polygon fill="grey" stroke="grey" stroke-width="2" points="231.05,-34.85 239.11,-27.99 228.52,-28.32 231.05,-34.85"/>
</g>
<!-- 4 -->
<g id="node5" class="node">
<title>4</title>
<path fill="none" stroke="#56d8a9" stroke-width="2" d="M99,-252C99,-252 58,-252 58,-252 52,-252 46,-246 46,-240 46,-240 46,-228 46,-228 46,-222 52,-216 58,-216 58,-216 99,-216 99,-216 105,-216 111,-222 111,-228 111,-228 111,-240 111,-240 111,-246 105,-252 99,-252"/>
<text text-anchor="middle" x="78.5" y="-231.5" font-family="sans" font-size="10.00">fastqc_raw</text>
</g>
<!-- 4&#45;&gt;3 -->
<g id="edge11" class="edge">
<title>4&#45;&gt;3</title>
<path fill="none" stroke="grey" stroke-width="2" d="M83.94,-215.7C86.39,-207.9 89.34,-198.51 92.07,-189.83"/>
<polygon fill="grey" stroke="grey" stroke-width="2" points="95.46,-190.69 95.12,-180.1 88.79,-188.59 95.46,-190.69"/>
</g>
<!-- 5&#45;&gt;4 -->
<g id="edge12" class="edge">
<title>5&#45;&gt;4</title>
<path fill="none" stroke="grey" stroke-width="2" d="M158.57,-287.88C144.84,-278.81 127.79,-267.55 112.96,-257.76"/>
<polygon fill="grey" stroke="grey" stroke-width="2" points="114.8,-254.78 104.53,-252.19 110.95,-260.62 114.8,-254.78"/>
</g>
<!-- 6 -->
<g id="node7" class="node">
<title>6</title>
<path fill="none" stroke="#59d856" stroke-width="2" d="M227.5,-252C227.5,-252 141.5,-252 141.5,-252 135.5,-252 129.5,-246 129.5,-240 129.5,-240 129.5,-228 129.5,-228 129.5,-222 135.5,-216 141.5,-216 141.5,-216 227.5,-216 227.5,-216 233.5,-216 239.5,-222 239.5,-228 239.5,-228 239.5,-240 239.5,-240 239.5,-246 233.5,-252 227.5,-252"/>
<text text-anchor="middle" x="184.5" y="-231.5" font-family="sans" font-size="10.00">seqkit_stats_trimmed</text>
</g>
<!-- 5&#45;&gt;6 -->
<g id="edge14" class="edge">
<title>5&#45;&gt;6</title>
<path fill="none" stroke="grey" stroke-width="2" d="M184.5,-287.7C184.5,-279.98 184.5,-270.71 184.5,-262.11"/>
<polygon fill="grey" stroke="grey" stroke-width="2" points="188,-262.1 184.5,-252.1 181,-262.1 188,-262.1"/>
</g>
<!-- 8 -->
<g id="node9" class="node">
<title>8</title>
<path fill="none" stroke="#8fd856" stroke-width="2" d="M329.5,-252C329.5,-252 269.5,-252 269.5,-252 263.5,-252 257.5,-246 257.5,-240 257.5,-240 257.5,-228 257.5,-228 257.5,-222 263.5,-216 269.5,-216 269.5,-216 329.5,-216 329.5,-216 335.5,-216 341.5,-222 341.5,-228 341.5,-228 341.5,-240 341.5,-240 341.5,-246 335.5,-252 329.5,-252"/>
<text text-anchor="middle" x="299.5" y="-231.5" font-family="sans" font-size="10.00">fastqc_trimmed</text>
</g>
<!-- 5&#45;&gt;8 -->
<g id="edge16" class="edge">
<title>5&#45;&gt;8</title>
<path fill="none" stroke="grey" stroke-width="2" d="M212.63,-287.88C227.67,-278.72 246.37,-267.34 262.56,-257.48"/>
<polygon fill="grey" stroke="grey" stroke-width="2" points="264.54,-260.38 271.26,-252.19 260.9,-254.4 264.54,-260.38"/>
</g>
<!-- 10 -->
<g id="node11" class="node">
<title>10</title>
<path fill="none" stroke="#5692d8" stroke-width="2" d="M467.5,-252C467.5,-252 371.5,-252 371.5,-252 365.5,-252 359.5,-246 359.5,-240 359.5,-240 359.5,-228 359.5,-228 359.5,-222 365.5,-216 371.5,-216 371.5,-216 467.5,-216 467.5,-216 473.5,-216 479.5,-222 479.5,-228 479.5,-228 479.5,-240 479.5,-240 479.5,-246 473.5,-252 467.5,-252"/>
<text text-anchor="middle" x="419.5" y="-231.5" font-family="sans" font-size="10.00">bbduk_decontam_reads</text>
</g>
<!-- 5&#45;&gt;10 -->
<g id="edge18" class="edge">
<title>5&#45;&gt;10</title>
<path fill="none" stroke="grey" stroke-width="2" d="M231.77,-290.92C266.49,-280.58 314.14,-266.39 352.74,-254.89"/>
<polygon fill="grey" stroke="grey" stroke-width="2" points="353.76,-258.24 362.34,-252.03 351.76,-251.53 353.76,-258.24"/>
</g>
<!-- 6&#45;&gt;0 -->
<g id="edge6" class="edge">
<title>6&#45;&gt;0</title>
<path fill="none" stroke="grey" stroke-width="2" d="M183.83,-215.83C183.62,-197.57 184.74,-168.07 192.5,-144 204.57,-106.59 229.37,-68.4 246.93,-44.25"/>
<polygon fill="grey" stroke="grey" stroke-width="2" points="249.89,-46.13 253.03,-36.01 244.27,-41.96 249.89,-46.13"/>
</g>
<!-- 7 -->
<g id="node8" class="node">
<title>7</title>
<path fill="none" stroke="#d8ac56" stroke-width="2" d="M279,-180C279,-180 214,-180 214,-180 208,-180 202,-174 202,-168 202,-168 202,-156 202,-156 202,-150 208,-144 214,-144 214,-144 279,-144 279,-144 285,-144 291,-150 291,-156 291,-156 291,-168 291,-168 291,-174 285,-180 279,-180"/>
<text text-anchor="middle" x="246.5" y="-159.5" font-family="sans" font-size="10.00">multiqc_trimmed</text>
</g>
<!-- 7&#45;&gt;0 -->
<g id="edge3" class="edge">
<title>7&#45;&gt;0</title>
<path fill="none" stroke="grey" stroke-width="2" d="M246.69,-143.83C247.11,-125.82 248.43,-96.76 252.5,-72 253.93,-63.32 256.15,-54 258.4,-45.63"/>
<polygon fill="grey" stroke="grey" stroke-width="2" points="261.77,-46.58 261.12,-36.01 255.04,-44.68 261.77,-46.58"/>
</g>
<!-- 8&#45;&gt;7 -->
<g id="edge15" class="edge">
<title>8&#45;&gt;7</title>
<path fill="none" stroke="grey" stroke-width="2" d="M286.4,-215.7C280.11,-207.39 272.45,-197.28 265.54,-188.14"/>
<polygon fill="grey" stroke="grey" stroke-width="2" points="268.28,-185.96 259.45,-180.1 262.7,-190.19 268.28,-185.96"/>
</g>
<!-- 9 -->
<g id="node10" class="node">
<title>9</title>
<path fill="none" stroke="#d88d56" stroke-width="2" d="M415.5,-180C415.5,-180 321.5,-180 321.5,-180 315.5,-180 309.5,-174 309.5,-168 309.5,-168 309.5,-156 309.5,-156 309.5,-150 315.5,-144 321.5,-144 321.5,-144 415.5,-144 415.5,-144 421.5,-144 427.5,-150 427.5,-156 427.5,-156 427.5,-168 427.5,-168 427.5,-174 421.5,-180 415.5,-180"/>
<text text-anchor="middle" x="368.5" y="-159.5" font-family="sans" font-size="10.00">seqkit_stats_decontam</text>
</g>
<!-- 9&#45;&gt;0 -->
<g id="edge2" class="edge">
<title>9&#45;&gt;0</title>
<path fill="none" stroke="grey" stroke-width="2" d="M328.33,-143.79C312.74,-135.19 296.12,-123.31 285.5,-108 272.95,-89.9 268.43,-65.12 266.92,-46.3"/>
<polygon fill="grey" stroke="grey" stroke-width="2" points="270.41,-46.06 266.35,-36.27 263.42,-46.46 270.41,-46.06"/>
</g>
<!-- 10&#45;&gt;9 -->
<g id="edge17" class="edge">
<title>10&#45;&gt;9</title>
<path fill="none" stroke="grey" stroke-width="2" d="M406.89,-215.7C400.9,-207.47 393.62,-197.48 387.02,-188.42"/>
<polygon fill="grey" stroke="grey" stroke-width="2" points="389.68,-186.13 380.96,-180.1 384.02,-190.25 389.68,-186.13"/>
</g>
<!-- 12 -->
<g id="node13" class="node">
<title>12</title>
<path fill="none" stroke="#56a9d8" stroke-width="2" d="M525.5,-180C525.5,-180 457.5,-180 457.5,-180 451.5,-180 445.5,-174 445.5,-168 445.5,-168 445.5,-156 445.5,-156 445.5,-150 451.5,-144 457.5,-144 457.5,-144 525.5,-144 525.5,-144 531.5,-144 537.5,-150 537.5,-156 537.5,-156 537.5,-168 537.5,-168 537.5,-174 531.5,-180 525.5,-180"/>
<text text-anchor="middle" x="491.5" y="-159.5" font-family="sans" font-size="10.00">fastqc_decontam</text>
</g>
<!-- 10&#45;&gt;12 -->
<g id="edge20" class="edge">
<title>10&#45;&gt;12</title>
<path fill="none" stroke="grey" stroke-width="2" d="M437.3,-215.7C446.1,-207.14 456.88,-196.66 466.5,-187.3"/>
<polygon fill="grey" stroke="grey" stroke-width="2" points="469.18,-189.58 473.91,-180.1 464.3,-184.57 469.18,-189.58"/>
</g>
<!-- 11 -->
<g id="node12" class="node">
<title>11</title>
<path fill="none" stroke="#afd856" stroke-width="2" d="M378.5,-108C378.5,-108 306.5,-108 306.5,-108 300.5,-108 294.5,-102 294.5,-96 294.5,-96 294.5,-84 294.5,-84 294.5,-78 300.5,-72 306.5,-72 306.5,-72 378.5,-72 378.5,-72 384.5,-72 390.5,-78 390.5,-84 390.5,-84 390.5,-96 390.5,-96 390.5,-102 384.5,-108 378.5,-108"/>
<text text-anchor="middle" x="342.5" y="-87.5" font-family="sans" font-size="10.00">multiqc_decontam</text>
</g>
<!-- 11&#45;&gt;0 -->
<g id="edge9" class="edge">
<title>11&#45;&gt;0</title>
<path fill="none" stroke="grey" stroke-width="2" d="M323.71,-71.7C314.33,-63.05 302.82,-52.45 292.59,-43.03"/>
<polygon fill="grey" stroke="grey" stroke-width="2" points="294.8,-40.3 285.07,-36.1 290.05,-45.45 294.8,-40.3"/>
</g>
<!-- 12&#45;&gt;11 -->
<g id="edge19" class="edge">
<title>12&#45;&gt;11</title>
<path fill="none" stroke="grey" stroke-width="2" d="M455.05,-143.88C434.86,-134.39 409.58,-122.51 388.09,-112.42"/>
<polygon fill="grey" stroke="grey" stroke-width="2" points="389.37,-109.15 378.83,-108.07 386.39,-115.49 389.37,-109.15"/>
</g>
<!-- 13 -->
<g id="node14" class="node">
<title>13</title>
<path fill="none" stroke="#56d8c9" stroke-width="2" d="M482,-108C482,-108 421,-108 421,-108 415,-108 409,-102 409,-96 409,-96 409,-84 409,-84 409,-78 415,-72 421,-72 421,-72 482,-72 482,-72 488,-72 494,-78 494,-84 494,-84 494,-96 494,-96 494,-102 488,-108 482,-108"/>
<text text-anchor="middle" x="451.5" y="-87.5" font-family="sans" font-size="10.00">basic_rulegraph</text>
</g>
<!-- 13&#45;&gt;0 -->
<g id="edge8" class="edge">
<title>13&#45;&gt;0</title>
<path fill="none" stroke="grey" stroke-width="2" d="M408.59,-72.76C376.62,-60.67 333.41,-44.32 303.07,-32.84"/>
<polygon fill="grey" stroke="grey" stroke-width="2" points="304.29,-29.56 293.7,-29.29 301.81,-36.1 304.29,-29.56"/>
</g>
<!-- 14 -->
<g id="node15" class="node">
<title>14</title>
<path fill="none" stroke="#c6d856" stroke-width="2" d="M621,-108C621,-108 524,-108 524,-108 518,-108 512,-102 512,-96 512,-96 512,-84 512,-84 512,-78 518,-72 524,-72 524,-72 621,-72 621,-72 627,-72 633,-78 633,-84 633,-84 633,-96 633,-96 633,-102 627,-108 621,-108"/>
<text text-anchor="middle" x="572.5" y="-87.5" font-family="sans" font-size="10.00">snakemake_html_report</text>
</g>
<!-- 14&#45;&gt;0 -->
<g id="edge5" class="edge">
<title>14&#45;&gt;0</title>
<path fill="none" stroke="grey" stroke-width="2" d="M511.94,-74C509.09,-73.32 506.26,-72.65 503.5,-72 432.91,-55.41 350.19,-37.19 303.51,-27.02"/>
<polygon fill="grey" stroke="grey" stroke-width="2" points="304.07,-23.56 293.56,-24.85 302.58,-30.4 304.07,-23.56"/>
</g>
<!-- 15 -->
<g id="node16" class="node">
<title>15</title>
<path fill="none" stroke="#56d873" stroke-width="2" d="M707.5,-108C707.5,-108 663.5,-108 663.5,-108 657.5,-108 651.5,-102 651.5,-96 651.5,-96 651.5,-84 651.5,-84 651.5,-78 657.5,-72 663.5,-72 663.5,-72 707.5,-72 707.5,-72 713.5,-72 719.5,-78 719.5,-84 719.5,-84 719.5,-96 719.5,-96 719.5,-102 713.5,-108 707.5,-108"/>
<text text-anchor="middle" x="685.5" y="-87.5" font-family="sans" font-size="10.00">project_tree</text>
</g>
<!-- 15&#45;&gt;0 -->
<g id="edge7" class="edge">
<title>15&#45;&gt;0</title>
<path fill="none" stroke="grey" stroke-width="2" d="M651.48,-74.71C648.47,-73.7 645.45,-72.78 642.5,-72 521.2,-39.96 372.44,-26.26 304.1,-21.35"/>
<polygon fill="grey" stroke="grey" stroke-width="2" points="304.05,-17.84 293.84,-20.63 303.57,-24.82 304.05,-17.84"/>
</g>
</g>
</svg>
