<?xml version="1.0" encoding="UTF-8" standalone="no"?>
<!DOCTYPE svg PUBLIC "-//W3C//DTD SVG 1.1//EN"
 "http://www.w3.org/Graphics/SVG/1.1/DTD/svg11.dtd">
<!-- Generated by graphviz version 6.0.1 (0)
 -->
<!-- Title: snakemake_dag Pages: 1 -->
<svg width="966pt" height="260pt"
 viewBox="0.00 0.00 965.75 260.00" xmlns="http://www.w3.org/2000/svg" xmlns:xlink="http://www.w3.org/1999/xlink">
<g id="graph0" class="graph" transform="scale(1 1) rotate(0) translate(4 256)">
<title>snakemake_dag</title>
<polygon fill="white" stroke="none" points="-4,4 -4,-256 961.75,-256 961.75,4 -4,4"/>
<!-- 0 -->
<g id="node1" class="node">
<title>0</title>
<path fill="none" stroke="#d8b456" stroke-width="2" d="M337.75,-36C337.75,-36 307.75,-36 307.75,-36 301.75,-36 295.75,-30 295.75,-24 295.75,-24 295.75,-12 295.75,-12 295.75,-6 301.75,0 307.75,0 307.75,0 337.75,0 337.75,0 343.75,0 349.75,-6 349.75,-12 349.75,-12 349.75,-24 349.75,-24 349.75,-30 343.75,-36 337.75,-36"/>
<text text-anchor="middle" x="322.75" y="-15.5" font-family="sans" font-size="10.00">all</text>
</g>
<!-- 1 -->
<g id="node2" class="node">
<title>1</title>
<path fill="none" stroke="#56d8d8" stroke-width="2" d="M97.25,-252C97.25,-252 30.25,-252 30.25,-252 24.25,-252 18.25,-246 18.25,-240 18.25,-240 18.25,-228 18.25,-228 18.25,-222 24.25,-216 30.25,-216 30.25,-216 97.25,-216 97.25,-216 103.25,-216 109.25,-222 109.25,-228 109.25,-228 109.25,-240 109.25,-240 109.25,-246 103.25,-252 97.25,-252"/>
<text text-anchor="middle" x="63.75" y="-231.5" font-family="sans" font-size="10.00">bbduk_decontam</text>
</g>
<!-- 1&#45;&gt;0 -->
<g id="edge9" class="edge">
<title>1&#45;&gt;0</title>
<path fill="none" stroke="grey" stroke-width="2" d="M38.37,-215.95C27.04,-206.79 14.87,-194.4 8.75,-180 -11.04,-133.44 4.4,-102.53 44.75,-72 82.22,-43.65 218.89,-28.08 285.6,-22.01"/>
<polygon fill="grey" stroke="grey" stroke-width="2" points="286.03,-25.49 295.69,-21.12 285.42,-18.52 286.03,-25.49"/>
</g>
<!-- 4 -->
<g id="node5" class="node">
<title>4</title>
<path fill="none" stroke="#d85656" stroke-width="2" d="M97.75,-180C97.75,-180 29.75,-180 29.75,-180 23.75,-180 17.75,-174 17.75,-168 17.75,-168 17.75,-156 17.75,-156 17.75,-150 23.75,-144 29.75,-144 29.75,-144 97.75,-144 97.75,-144 103.75,-144 109.75,-150 109.75,-156 109.75,-156 109.75,-168 109.75,-168 109.75,-174 103.75,-180 97.75,-180"/>
<text text-anchor="middle" x="63.75" y="-159.5" font-family="sans" font-size="10.00">fastqc_decontam</text>
</g>
<!-- 1&#45;&gt;4 -->
<g id="edge13" class="edge">
<title>1&#45;&gt;4</title>
<path fill="none" stroke="grey" stroke-width="2" d="M63.75,-215.7C63.75,-207.98 63.75,-198.71 63.75,-190.11"/>
<polygon fill="grey" stroke="grey" stroke-width="2" points="67.25,-190.1 63.75,-180.1 60.25,-190.1 67.25,-190.1"/>
</g>
<!-- 9 -->
<g id="node10" class="node">
<title>9</title>
<path fill="none" stroke="#56d89a" stroke-width="2" d="M233.75,-180C233.75,-180 139.75,-180 139.75,-180 133.75,-180 127.75,-174 127.75,-168 127.75,-168 127.75,-156 127.75,-156 127.75,-150 133.75,-144 139.75,-144 139.75,-144 233.75,-144 233.75,-144 239.75,-144 245.75,-150 245.75,-156 245.75,-156 245.75,-168 245.75,-168 245.75,-174 239.75,-180 233.75,-180"/>
<text text-anchor="middle" x="186.75" y="-159.5" font-family="sans" font-size="10.00">seqkit_stats_decontam</text>
</g>
<!-- 1&#45;&gt;9 -->
<g id="edge16" class="edge">
<title>1&#45;&gt;9</title>
<path fill="none" stroke="grey" stroke-width="2" d="M93.84,-215.88C110.07,-206.64 130.29,-195.13 147.72,-185.21"/>
<polygon fill="grey" stroke="grey" stroke-width="2" points="149.59,-188.18 156.55,-180.19 146.12,-182.09 149.59,-188.18"/>
</g>
<!-- 2 -->
<g id="node3" class="node">
<title>2</title>
<path fill="none" stroke="#d87556" stroke-width="2" d="M317.25,-180C317.25,-180 276.25,-180 276.25,-180 270.25,-180 264.25,-174 264.25,-168 264.25,-168 264.25,-156 264.25,-156 264.25,-150 270.25,-144 276.25,-144 276.25,-144 317.25,-144 317.25,-144 323.25,-144 329.25,-150 329.25,-156 329.25,-156 329.25,-168 329.25,-168 329.25,-174 323.25,-180 317.25,-180"/>
<text text-anchor="middle" x="296.75" y="-159.5" font-family="sans" font-size="10.00">fastqc_raw</text>
</g>
<!-- 2&#45;&gt;0 -->
<g id="edge2" class="edge">
<title>2&#45;&gt;0</title>
<path fill="none" stroke="grey" stroke-width="2" d="M274.6,-143.87C264.34,-134.52 253.23,-122 247.75,-108 241.92,-93.1 240.39,-86.21 247.75,-72 256.07,-55.94 271.75,-43.7 286.62,-35.06"/>
<polygon fill="grey" stroke="grey" stroke-width="2" points="288.58,-37.98 295.71,-30.14 285.25,-31.82 288.58,-37.98"/>
</g>
<!-- 6 -->
<g id="node7" class="node">
<title>6</title>
<path fill="none" stroke="#56b9d8" stroke-width="2" d="M314.25,-108C314.25,-108 269.25,-108 269.25,-108 263.25,-108 257.25,-102 257.25,-96 257.25,-96 257.25,-84 257.25,-84 257.25,-78 263.25,-72 269.25,-72 269.25,-72 314.25,-72 314.25,-72 320.25,-72 326.25,-78 326.25,-84 326.25,-84 326.25,-96 326.25,-96 326.25,-102 320.25,-108 314.25,-108"/>
<text text-anchor="middle" x="291.75" y="-87.5" font-family="sans" font-size="10.00">multiqc_raw</text>
</g>
<!-- 2&#45;&gt;6 -->
<g id="edge14" class="edge">
<title>2&#45;&gt;6</title>
<path fill="none" stroke="grey" stroke-width="2" d="M295.52,-143.7C294.97,-135.98 294.3,-126.71 293.69,-118.11"/>
<polygon fill="grey" stroke="grey" stroke-width="2" points="297.18,-117.83 292.97,-108.1 290.2,-118.33 297.18,-117.83"/>
</g>
<!-- 3 -->
<g id="node4" class="node">
<title>3</title>
<path fill="none" stroke="#d6d856" stroke-width="2" d="M436.75,-180C436.75,-180 376.75,-180 376.75,-180 370.75,-180 364.75,-174 364.75,-168 364.75,-168 364.75,-156 364.75,-156 364.75,-150 370.75,-144 376.75,-144 376.75,-144 436.75,-144 436.75,-144 442.75,-144 448.75,-150 448.75,-156 448.75,-156 448.75,-168 448.75,-168 448.75,-174 442.75,-180 436.75,-180"/>
<text text-anchor="middle" x="406.75" y="-159.5" font-family="sans" font-size="10.00">fastqc_trimmed</text>
</g>
<!-- 3&#45;&gt;0 -->
<g id="edge3" class="edge">
<title>3&#45;&gt;0</title>
<path fill="none" stroke="grey" stroke-width="2" d="M395.89,-143.91C389.38,-133.57 380.98,-120.1 373.75,-108 361.27,-87.1 347.57,-63.15 337.52,-45.36"/>
<polygon fill="grey" stroke="grey" stroke-width="2" points="340.3,-43.16 332.35,-36.17 334.2,-46.6 340.3,-43.16"/>
</g>
<!-- 8 -->
<g id="node9" class="node">
<title>8</title>
<path fill="none" stroke="#56d8b9" stroke-width="2" d="M460.25,-108C460.25,-108 395.25,-108 395.25,-108 389.25,-108 383.25,-102 383.25,-96 383.25,-96 383.25,-84 383.25,-84 383.25,-78 389.25,-72 395.25,-72 395.25,-72 460.25,-72 460.25,-72 466.25,-72 472.25,-78 472.25,-84 472.25,-84 472.25,-96 472.25,-96 472.25,-102 466.25,-108 460.25,-108"/>
<text text-anchor="middle" x="427.75" y="-87.5" font-family="sans" font-size="10.00">multiqc_trimmed</text>
</g>
<!-- 3&#45;&gt;8 -->
<g id="edge15" class="edge">
<title>3&#45;&gt;8</title>
<path fill="none" stroke="grey" stroke-width="2" d="M411.94,-143.7C414.28,-135.9 417.1,-126.51 419.7,-117.83"/>
<polygon fill="grey" stroke="grey" stroke-width="2" points="423.1,-118.69 422.62,-108.1 416.39,-116.68 423.1,-118.69"/>
</g>
<!-- 4&#45;&gt;0 -->
<g id="edge1" class="edge">
<title>4&#45;&gt;0</title>
<path fill="none" stroke="grey" stroke-width="2" d="M56.27,-143.81C49,-124.16 41.26,-92.12 57.75,-72 86.13,-37.39 219.4,-24.93 285.45,-20.83"/>
<polygon fill="grey" stroke="grey" stroke-width="2" points="285.68,-24.32 295.45,-20.24 285.26,-17.33 285.68,-24.32"/>
</g>
<!-- 10 -->
<g id="node11" class="node">
<title>10</title>
<path fill="none" stroke="#567bd8" stroke-width="2" d="M150.75,-108C150.75,-108 78.75,-108 78.75,-108 72.75,-108 66.75,-102 66.75,-96 66.75,-96 66.75,-84 66.75,-84 66.75,-78 72.75,-72 78.75,-72 78.75,-72 150.75,-72 150.75,-72 156.75,-72 162.75,-78 162.75,-84 162.75,-84 162.75,-96 162.75,-96 162.75,-102 156.75,-108 150.75,-108"/>
<text text-anchor="middle" x="114.75" y="-87.5" font-family="sans" font-size="10.00">multiqc_decontam</text>
</g>
<!-- 4&#45;&gt;10 -->
<g id="edge17" class="edge">
<title>4&#45;&gt;10</title>
<path fill="none" stroke="grey" stroke-width="2" d="M76.36,-143.7C82.35,-135.47 89.63,-125.48 96.23,-116.42"/>
<polygon fill="grey" stroke="grey" stroke-width="2" points="99.23,-118.25 102.29,-108.1 93.57,-114.13 99.23,-118.25"/>
</g>
<!-- 5 -->
<g id="node6" class="node">
<title>5</title>
<path fill="none" stroke="#569ad8" stroke-width="2" d="M569.25,-108C569.25,-108 502.25,-108 502.25,-108 496.25,-108 490.25,-102 490.25,-96 490.25,-96 490.25,-84 490.25,-84 490.25,-78 496.25,-72 502.25,-72 502.25,-72 569.25,-72 569.25,-72 575.25,-72 581.25,-78 581.25,-84 581.25,-84 581.25,-96 581.25,-96 581.25,-102 575.25,-108 569.25,-108"/>
<text text-anchor="middle" x="535.75" y="-87.5" font-family="sans" font-size="10.00">seqkit_stats_raw</text>
</g>
<!-- 5&#45;&gt;0 -->
<g id="edge11" class="edge">
<title>5&#45;&gt;0</title>
<path fill="none" stroke="grey" stroke-width="2" d="M490.06,-73.98C451.06,-61.17 395.71,-42.98 359.52,-31.08"/>
<polygon fill="grey" stroke="grey" stroke-width="2" points="360.45,-27.7 349.85,-27.91 358.26,-34.35 360.45,-27.7"/>
</g>
<!-- 6&#45;&gt;0 -->
<g id="edge10" class="edge">
<title>6&#45;&gt;0</title>
<path fill="none" stroke="grey" stroke-width="2" d="M299.41,-71.7C302.94,-63.73 307.21,-54.1 311.12,-45.26"/>
<polygon fill="grey" stroke="grey" stroke-width="2" points="314.33,-46.67 315.18,-36.1 307.93,-43.83 314.33,-46.67"/>
</g>
<!-- 7 -->
<g id="node8" class="node">
<title>7</title>
<path fill="none" stroke="#d89556" stroke-width="2" d="M697.75,-108C697.75,-108 611.75,-108 611.75,-108 605.75,-108 599.75,-102 599.75,-96 599.75,-96 599.75,-84 599.75,-84 599.75,-78 605.75,-72 611.75,-72 611.75,-72 697.75,-72 697.75,-72 703.75,-72 709.75,-78 709.75,-84 709.75,-84 709.75,-96 709.75,-96 709.75,-102 703.75,-108 697.75,-108"/>
<text text-anchor="middle" x="654.75" y="-87.5" font-family="sans" font-size="10.00">seqkit_stats_trimmed</text>
</g>
<!-- 7&#45;&gt;0 -->
<g id="edge4" class="edge">
<title>7&#45;&gt;0</title>
<path fill="none" stroke="grey" stroke-width="2" d="M599.49,-74.31C596.2,-73.51 592.94,-72.73 589.75,-72 508.1,-53.24 411.49,-35.04 359.8,-25.63"/>
<polygon fill="grey" stroke="grey" stroke-width="2" points="360.24,-22.15 349.77,-23.81 358.99,-29.04 360.24,-22.15"/>
</g>
<!-- 8&#45;&gt;0 -->
<g id="edge8" class="edge">
<title>8&#45;&gt;0</title>
<path fill="none" stroke="grey" stroke-width="2" d="M402.07,-71.88C388.46,-62.81 371.58,-51.55 356.89,-41.76"/>
<polygon fill="grey" stroke="grey" stroke-width="2" points="358.8,-38.82 348.54,-36.19 354.92,-44.65 358.8,-38.82"/>
</g>
<!-- 9&#45;&gt;0 -->
<g id="edge7" class="edge">
<title>9&#45;&gt;0</title>
<path fill="none" stroke="grey" stroke-width="2" d="M194.09,-143.68C202.86,-124.49 218.97,-93.44 239.75,-72 253.18,-58.15 270.9,-46.21 286.52,-37.19"/>
<polygon fill="grey" stroke="grey" stroke-width="2" points="288.39,-40.15 295.42,-32.22 284.98,-34.04 288.39,-40.15"/>
</g>
<!-- 10&#45;&gt;0 -->
<g id="edge12" class="edge">
<title>10&#45;&gt;0</title>
<path fill="none" stroke="grey" stroke-width="2" d="M162.99,-72.76C200.46,-60.16 251.63,-42.93 285.87,-31.41"/>
<polygon fill="grey" stroke="grey" stroke-width="2" points="287.12,-34.69 295.48,-28.18 284.89,-28.05 287.12,-34.69"/>
</g>
<!-- 11 -->
<g id="node12" class="node">
<title>11</title>
<path fill="none" stroke="#b6d856" stroke-width="2" d="M801.75,-108C801.75,-108 739.75,-108 739.75,-108 733.75,-108 727.75,-102 727.75,-96 727.75,-96 727.75,-84 727.75,-84 727.75,-78 733.75,-72 739.75,-72 739.75,-72 801.75,-72 801.75,-72 807.75,-72 813.75,-78 813.75,-84 813.75,-84 813.75,-96 813.75,-96 813.75,-102 807.75,-108 801.75,-108"/>
<text text-anchor="middle" x="770.75" y="-87.5" font-family="sans" font-size="10.00">dot_rules_graph</text>
</g>
<!-- 11&#45;&gt;0 -->
<g id="edge5" class="edge">
<title>11&#45;&gt;0</title>
<path fill="none" stroke="grey" stroke-width="2" d="M727.51,-74.21C724.56,-73.4 721.62,-72.66 718.75,-72 588.82,-42.33 430.86,-27.34 360.13,-21.71"/>
<polygon fill="grey" stroke="grey" stroke-width="2" points="360.19,-18.2 349.94,-20.92 359.64,-25.18 360.19,-18.2"/>
</g>
<!-- 12 -->
<g id="node13" class="node">
<title>12</title>
<path fill="none" stroke="#59d856" stroke-width="2" d="M945.75,-108C945.75,-108 843.75,-108 843.75,-108 837.75,-108 831.75,-102 831.75,-96 831.75,-96 831.75,-84 831.75,-84 831.75,-78 837.75,-72 843.75,-72 843.75,-72 945.75,-72 945.75,-72 951.75,-72 957.75,-78 957.75,-84 957.75,-84 957.75,-96 957.75,-96 957.75,-102 951.75,-108 945.75,-108"/>
<text text-anchor="middle" x="894.75" y="-87.5" font-family="sans" font-size="10.00">static_snakemake_report</text>
</g>
<!-- 12&#45;&gt;0 -->
<g id="edge6" class="edge">
<title>12&#45;&gt;0</title>
<path fill="none" stroke="grey" stroke-width="2" d="M831.63,-73.62C828.63,-73.04 825.66,-72.5 822.75,-72 651.1,-42.76 443.39,-26.91 360.02,-21.33"/>
<polygon fill="grey" stroke="grey" stroke-width="2" points="360.23,-17.84 350.02,-20.68 359.77,-24.83 360.23,-17.84"/>
</g>
</g>
</svg>
