<?xml version="1.0" encoding="UTF-8" standalone="no"?>
<!DOCTYPE svg PUBLIC "-//W3C//DTD SVG 1.1//EN"
 "http://www.w3.org/Graphics/SVG/1.1/DTD/svg11.dtd">
<!-- Generated by graphviz version 6.0.1 (0)
 -->
<!-- Title: snakemake_dag Pages: 1 -->
<svg width="1069pt" height="404pt"
 viewBox="0.00 0.00 1068.86 404.00" xmlns="http://www.w3.org/2000/svg" xmlns:xlink="http://www.w3.org/1999/xlink">
<g id="graph0" class="graph" transform="scale(1 1) rotate(0) translate(4 400)">
<title>snakemake_dag</title>
<polygon fill="white" stroke="none" points="-4,4 -4,-400 1064.86,-400 1064.86,4 -4,4"/>
<!-- 0 -->
<g id="node1" class="node">
<title>0</title>
<path fill="none" stroke="#56d8b9" stroke-width="2" d="M573,-36C573,-36 543,-36 543,-36 537,-36 531,-30 531,-24 531,-24 531,-12 531,-12 531,-6 537,0 543,0 543,0 573,0 573,0 579,0 585,-6 585,-12 585,-12 585,-24 585,-24 585,-30 579,-36 573,-36"/>
<text text-anchor="middle" x="558" y="-15.5" font-family="sans" font-size="10.00">all</text>
</g>
<!-- 1 -->
<g id="node2" class="node">
<title>1</title>
<path fill="none" stroke="#d85656" stroke-width="2" d="M132,-108C132,-108 34,-108 34,-108 28,-108 22,-102 22,-96 22,-96 22,-84 22,-84 22,-78 28,-72 34,-72 34,-72 132,-72 132,-72 138,-72 144,-78 144,-84 144,-84 144,-96 144,-96 144,-102 138,-108 132,-108"/>
<text text-anchor="middle" x="83" y="-87.5" font-family="sans" font-size="10.00">deploy_to_github_pages</text>
</g>
<!-- 1&#45;&gt;0 -->
<g id="edge10" class="edge">
<title>1&#45;&gt;0</title>
<path fill="none" stroke="grey" stroke-width="2" d="M144.38,-73.7C147.29,-73.1 150.17,-72.53 153,-72 287.28,-46.99 448.76,-29.61 520.5,-22.54"/>
<polygon fill="grey" stroke="grey" stroke-width="2" points="521.21,-25.99 530.82,-21.53 520.53,-19.02 521.21,-25.99"/>
</g>
<!-- 2 -->
<g id="node3" class="node">
<title>2</title>
<path fill="none" stroke="#d8c356" stroke-width="2" d="M168,-180C168,-180 98,-180 98,-180 92,-180 86,-174 86,-168 86,-168 86,-156 86,-156 86,-150 92,-144 98,-144 98,-144 168,-144 168,-144 174,-144 180,-150 180,-156 180,-156 180,-168 180,-168 180,-174 174,-180 168,-180"/>
<text text-anchor="middle" x="133" y="-159.5" font-family="sans" font-size="10.00">get_dot_rulegraph</text>
</g>
<!-- 2&#45;&gt;1 -->
<g id="edge16" class="edge">
<title>2&#45;&gt;1</title>
<path fill="none" stroke="grey" stroke-width="2" d="M120.64,-143.7C114.77,-135.47 107.63,-125.48 101.16,-116.42"/>
<polygon fill="grey" stroke="grey" stroke-width="2" points="103.88,-114.21 95.22,-108.1 98.18,-118.28 103.88,-114.21"/>
</g>
<!-- 3 -->
<g id="node4" class="node">
<title>3</title>
<path fill="none" stroke="#568ad8" stroke-width="2" d="M56,-180C56,-180 12,-180 12,-180 6,-180 0,-174 0,-168 0,-168 0,-156 0,-156 0,-150 6,-144 12,-144 12,-144 56,-144 56,-144 62,-144 68,-150 68,-156 68,-156 68,-168 68,-168 68,-174 62,-180 56,-180"/>
<text text-anchor="middle" x="34" y="-159.5" font-family="sans" font-size="10.00">project_tree</text>
</g>
<!-- 3&#45;&gt;1 -->
<g id="edge17" class="edge">
<title>3&#45;&gt;1</title>
<path fill="none" stroke="grey" stroke-width="2" d="M46.11,-143.7C51.87,-135.47 58.86,-125.48 65.21,-116.42"/>
<polygon fill="grey" stroke="grey" stroke-width="2" points="68.16,-118.3 71.03,-108.1 62.42,-114.29 68.16,-118.3"/>
</g>
<!-- 4 -->
<g id="node5" class="node">
<title>4</title>
<path fill="none" stroke="#d88d56" stroke-width="2" d="M239.5,-108C239.5,-108 174.5,-108 174.5,-108 168.5,-108 162.5,-102 162.5,-96 162.5,-96 162.5,-84 162.5,-84 162.5,-78 168.5,-72 174.5,-72 174.5,-72 239.5,-72 239.5,-72 245.5,-72 251.5,-78 251.5,-84 251.5,-84 251.5,-96 251.5,-96 251.5,-102 245.5,-108 239.5,-108"/>
<text text-anchor="middle" x="207" y="-87.5" font-family="sans" font-size="10.00">import_metadata</text>
</g>
<!-- 4&#45;&gt;0 -->
<g id="edge3" class="edge">
<title>4&#45;&gt;0</title>
<path fill="none" stroke="grey" stroke-width="2" d="M251.65,-75.62C256.48,-74.33 261.33,-73.09 266,-72 356.72,-50.75 464.99,-33.08 520.73,-24.53"/>
<polygon fill="grey" stroke="grey" stroke-width="2" points="521.48,-27.96 530.84,-22.99 520.43,-21.03 521.48,-27.96"/>
</g>
<!-- 5 -->
<g id="node6" class="node">
<title>5</title>
<path fill="none" stroke="#97d856" stroke-width="2" d="M426.5,-396C426.5,-396 361.5,-396 361.5,-396 355.5,-396 349.5,-390 349.5,-384 349.5,-384 349.5,-372 349.5,-372 349.5,-366 355.5,-360 361.5,-360 361.5,-360 426.5,-360 426.5,-360 432.5,-360 438.5,-366 438.5,-372 438.5,-372 438.5,-384 438.5,-384 438.5,-390 432.5,-396 426.5,-396"/>
<text text-anchor="middle" x="394" y="-375.5" font-family="sans" font-size="10.00">import_rawreads</text>
</g>
<!-- 5&#45;&gt;0 -->
<g id="edge13" class="edge">
<title>5&#45;&gt;0</title>
<path fill="none" stroke="grey" stroke-width="2" d="M366.98,-359.96C333.27,-336.37 280,-290.33 280,-235 280,-235 280,-235 280,-161 280,-120.55 270.28,-100.48 299,-72 329.87,-41.39 456.9,-27.06 520.85,-21.68"/>
<polygon fill="grey" stroke="grey" stroke-width="2" points="521.24,-25.16 530.92,-20.86 520.67,-18.18 521.24,-25.16"/>
</g>
<!-- 6 -->
<g id="node7" class="node">
<title>6</title>
<path fill="none" stroke="#d8ac56" stroke-width="2" d="M476.5,-180C476.5,-180 409.5,-180 409.5,-180 403.5,-180 397.5,-174 397.5,-168 397.5,-168 397.5,-156 397.5,-156 397.5,-150 403.5,-144 409.5,-144 409.5,-144 476.5,-144 476.5,-144 482.5,-144 488.5,-150 488.5,-156 488.5,-156 488.5,-168 488.5,-168 488.5,-174 482.5,-180 476.5,-180"/>
<text text-anchor="middle" x="443" y="-159.5" font-family="sans" font-size="10.00">seqkit_stats_raw</text>
</g>
<!-- 5&#45;&gt;6 -->
<g id="edge18" class="edge">
<title>5&#45;&gt;6</title>
<path fill="none" stroke="grey" stroke-width="2" d="M397.93,-359.85C406.42,-322.75 426.56,-234.81 436.79,-190.1"/>
<polygon fill="grey" stroke="grey" stroke-width="2" points="440.23,-190.76 439.05,-180.23 433.41,-189.2 440.23,-190.76"/>
</g>
<!-- 7 -->
<g id="node8" class="node">
<title>7</title>
<path fill="none" stroke="#b6d856" stroke-width="2" d="M367.5,-180C367.5,-180 326.5,-180 326.5,-180 320.5,-180 314.5,-174 314.5,-168 314.5,-168 314.5,-156 314.5,-156 314.5,-150 320.5,-144 326.5,-144 326.5,-144 367.5,-144 367.5,-144 373.5,-144 379.5,-150 379.5,-156 379.5,-156 379.5,-168 379.5,-168 379.5,-174 373.5,-180 367.5,-180"/>
<text text-anchor="middle" x="347" y="-159.5" font-family="sans" font-size="10.00">fastqc_raw</text>
</g>
<!-- 5&#45;&gt;7 -->
<g id="edge19" class="edge">
<title>5&#45;&gt;7</title>
<path fill="none" stroke="grey" stroke-width="2" d="M390.23,-359.85C382.09,-322.75 362.77,-234.81 352.95,-190.1"/>
<polygon fill="grey" stroke="grey" stroke-width="2" points="356.35,-189.25 350.78,-180.23 349.51,-190.75 356.35,-189.25"/>
</g>
<!-- 9 -->
<g id="node10" class="node">
<title>9</title>
<path fill="none" stroke="#61d856" stroke-width="2" d="M881,-324C881,-324 811,-324 811,-324 805,-324 799,-318 799,-312 799,-312 799,-300 799,-300 799,-294 805,-288 811,-288 811,-288 881,-288 881,-288 887,-288 893,-294 893,-300 893,-300 893,-312 893,-312 893,-318 887,-324 881,-324"/>
<text text-anchor="middle" x="846" y="-303.5" font-family="sans" font-size="10.00">bbduk_trim_reads</text>
</g>
<!-- 5&#45;&gt;9 -->
<g id="edge21" class="edge">
<title>5&#45;&gt;9</title>
<path fill="none" stroke="grey" stroke-width="2" d="M438.58,-370.1C521.12,-357.31 697.63,-329.98 788.83,-315.85"/>
<polygon fill="grey" stroke="grey" stroke-width="2" points="789.37,-319.31 798.72,-314.32 788.3,-312.39 789.37,-319.31"/>
</g>
<!-- 6&#45;&gt;0 -->
<g id="edge4" class="edge">
<title>6&#45;&gt;0</title>
<path fill="none" stroke="grey" stroke-width="2" d="M450.33,-143.74C458.85,-124.88 474.18,-94.38 493,-72 502.11,-61.17 513.68,-50.92 524.52,-42.37"/>
<polygon fill="grey" stroke="grey" stroke-width="2" points="526.79,-45.04 532.62,-36.19 522.54,-39.48 526.79,-45.04"/>
</g>
<!-- 17 -->
<g id="node18" class="node">
<title>17</title>
<path fill="none" stroke="#56d882" stroke-width="2" d="M751.5,-108C751.5,-108 674.5,-108 674.5,-108 668.5,-108 662.5,-102 662.5,-96 662.5,-96 662.5,-84 662.5,-84 662.5,-78 668.5,-72 674.5,-72 674.5,-72 751.5,-72 751.5,-72 757.5,-72 763.5,-78 763.5,-84 763.5,-84 763.5,-96 763.5,-96 763.5,-102 757.5,-108 751.5,-108"/>
<text text-anchor="middle" x="713" y="-87.5" font-family="sans" font-size="10.00">plot_qc_histograms</text>
</g>
<!-- 6&#45;&gt;17 -->
<g id="edge31" class="edge">
<title>6&#45;&gt;17</title>
<path fill="none" stroke="grey" stroke-width="2" d="M488.56,-146.7C491.75,-145.76 494.92,-144.86 498,-144 549.89,-129.6 609.37,-115.09 652.6,-104.9"/>
<polygon fill="grey" stroke="grey" stroke-width="2" points="653.46,-108.29 662.39,-102.6 651.86,-101.48 653.46,-108.29"/>
</g>
<!-- 7&#45;&gt;0 -->
<g id="edge11" class="edge">
<title>7&#45;&gt;0</title>
<path fill="none" stroke="grey" stroke-width="2" d="M368.37,-143.8C391.77,-125.25 430.67,-95.27 466,-72 483.92,-60.19 504.58,-48.16 521.77,-38.56"/>
<polygon fill="grey" stroke="grey" stroke-width="2" points="523.87,-41.39 530.92,-33.48 520.48,-35.27 523.87,-41.39"/>
</g>
<!-- 8 -->
<g id="node9" class="node">
<title>8</title>
<path fill="none" stroke="#d87556" stroke-width="2" d="M365.5,-108C365.5,-108 320.5,-108 320.5,-108 314.5,-108 308.5,-102 308.5,-96 308.5,-96 308.5,-84 308.5,-84 308.5,-78 314.5,-72 320.5,-72 320.5,-72 365.5,-72 365.5,-72 371.5,-72 377.5,-78 377.5,-84 377.5,-84 377.5,-96 377.5,-96 377.5,-102 371.5,-108 365.5,-108"/>
<text text-anchor="middle" x="343" y="-87.5" font-family="sans" font-size="10.00">multiqc_raw</text>
</g>
<!-- 7&#45;&gt;8 -->
<g id="edge20" class="edge">
<title>7&#45;&gt;8</title>
<path fill="none" stroke="grey" stroke-width="2" d="M346.01,-143.7C345.57,-135.98 345.04,-126.71 344.55,-118.11"/>
<polygon fill="grey" stroke="grey" stroke-width="2" points="348.04,-117.89 343.98,-108.1 341.05,-118.29 348.04,-117.89"/>
</g>
<!-- 8&#45;&gt;0 -->
<g id="edge1" class="edge">
<title>8&#45;&gt;0</title>
<path fill="none" stroke="grey" stroke-width="2" d="M377.76,-76.82C382.54,-75.18 387.39,-73.54 392,-72 436.22,-57.27 487.34,-41.08 521.03,-30.51"/>
<polygon fill="grey" stroke="grey" stroke-width="2" points="522.41,-33.75 530.91,-27.42 520.32,-27.07 522.41,-33.75"/>
</g>
<!-- 9&#45;&gt;0 -->
<g id="edge5" class="edge">
<title>9&#45;&gt;0</title>
<path fill="none" stroke="grey" stroke-width="2" d="M862.36,-287.73C888.57,-257.87 934.63,-194.9 910,-144 887.53,-97.58 865.77,-93.73 819,-72 744.46,-37.38 647.6,-25.28 595.35,-21.12"/>
<polygon fill="grey" stroke="grey" stroke-width="2" points="595.44,-17.62 585.21,-20.37 594.93,-24.6 595.44,-17.62"/>
</g>
<!-- 10 -->
<g id="node11" class="node">
<title>10</title>
<path fill="none" stroke="#56d8d0" stroke-width="2" d="M889,-180C889,-180 803,-180 803,-180 797,-180 791,-174 791,-168 791,-168 791,-156 791,-156 791,-150 797,-144 803,-144 803,-144 889,-144 889,-144 895,-144 901,-150 901,-156 901,-156 901,-168 901,-168 901,-174 895,-180 889,-180"/>
<text text-anchor="middle" x="846" y="-159.5" font-family="sans" font-size="10.00">seqkit_stats_trimmed</text>
</g>
<!-- 9&#45;&gt;10 -->
<g id="edge22" class="edge">
<title>9&#45;&gt;10</title>
<path fill="none" stroke="grey" stroke-width="2" d="M846,-287.87C846,-263.67 846,-219.21 846,-190.39"/>
<polygon fill="grey" stroke="grey" stroke-width="2" points="849.5,-190.19 846,-180.19 842.5,-190.19 849.5,-190.19"/>
</g>
<!-- 11 -->
<g id="node12" class="node">
<title>11</title>
<path fill="none" stroke="#56d89a" stroke-width="2" d="M1030,-180C1030,-180 970,-180 970,-180 964,-180 958,-174 958,-168 958,-168 958,-156 958,-156 958,-150 964,-144 970,-144 970,-144 1030,-144 1030,-144 1036,-144 1042,-150 1042,-156 1042,-156 1042,-168 1042,-168 1042,-174 1036,-180 1030,-180"/>
<text text-anchor="middle" x="1000" y="-159.5" font-family="sans" font-size="10.00">fastqc_trimmed</text>
</g>
<!-- 9&#45;&gt;11 -->
<g id="edge23" class="edge">
<title>9&#45;&gt;11</title>
<path fill="none" stroke="grey" stroke-width="2" d="M887.66,-287.94C906.02,-279.06 927,-266.92 943,-252 962.17,-234.12 977.69,-208.48 987.67,-189.31"/>
<polygon fill="grey" stroke="grey" stroke-width="2" points="990.88,-190.72 992.25,-180.21 984.63,-187.57 990.88,-190.72"/>
</g>
<!-- 13 -->
<g id="node14" class="node">
<title>13</title>
<path fill="none" stroke="#5673d8" stroke-width="2" d="M704.5,-252C704.5,-252 637.5,-252 637.5,-252 631.5,-252 625.5,-246 625.5,-240 625.5,-240 625.5,-228 625.5,-228 625.5,-222 631.5,-216 637.5,-216 637.5,-216 704.5,-216 704.5,-216 710.5,-216 716.5,-222 716.5,-228 716.5,-228 716.5,-240 716.5,-240 716.5,-246 710.5,-252 704.5,-252"/>
<text text-anchor="middle" x="671" y="-231.5" font-family="sans" font-size="10.00">bbduk_decontam</text>
</g>
<!-- 9&#45;&gt;13 -->
<g id="edge25" class="edge">
<title>9&#45;&gt;13</title>
<path fill="none" stroke="grey" stroke-width="2" d="M803.19,-287.88C779.05,-278.22 748.72,-266.09 723.19,-255.88"/>
<polygon fill="grey" stroke="grey" stroke-width="2" points="724.26,-252.53 713.67,-252.07 721.66,-259.03 724.26,-252.53"/>
</g>
<!-- 10&#45;&gt;0 -->
<g id="edge7" class="edge">
<title>10&#45;&gt;0</title>
<path fill="none" stroke="grey" stroke-width="2" d="M839.66,-143.7C831.27,-123.31 814.51,-89.95 789,-72 730.23,-30.63 644.11,-21.04 595.33,-19.12"/>
<polygon fill="grey" stroke="grey" stroke-width="2" points="595.32,-15.62 585.22,-18.81 595.1,-22.62 595.32,-15.62"/>
</g>
<!-- 10&#45;&gt;17 -->
<g id="edge29" class="edge">
<title>10&#45;&gt;17</title>
<path fill="none" stroke="grey" stroke-width="2" d="M813.46,-143.88C795.75,-134.55 773.65,-122.92 754.68,-112.94"/>
<polygon fill="grey" stroke="grey" stroke-width="2" points="756.14,-109.75 745.66,-108.19 752.88,-115.94 756.14,-109.75"/>
</g>
<!-- 11&#45;&gt;0 -->
<g id="edge14" class="edge">
<title>11&#45;&gt;0</title>
<path fill="none" stroke="grey" stroke-width="2" d="M1023.18,-143.66C1045.74,-124.74 1073.93,-94.18 1054,-72 1023.43,-37.99 705.66,-24.02 595.42,-20.18"/>
<polygon fill="grey" stroke="grey" stroke-width="2" points="595.23,-16.67 585.11,-19.83 594.99,-23.66 595.23,-16.67"/>
</g>
<!-- 12 -->
<g id="node13" class="node">
<title>12</title>
<path fill="none" stroke="#80d856" stroke-width="2" d="M1032.5,-108C1032.5,-108 967.5,-108 967.5,-108 961.5,-108 955.5,-102 955.5,-96 955.5,-96 955.5,-84 955.5,-84 955.5,-78 961.5,-72 967.5,-72 967.5,-72 1032.5,-72 1032.5,-72 1038.5,-72 1044.5,-78 1044.5,-84 1044.5,-84 1044.5,-96 1044.5,-96 1044.5,-102 1038.5,-108 1032.5,-108"/>
<text text-anchor="middle" x="1000" y="-87.5" font-family="sans" font-size="10.00">multiqc_trimmed</text>
</g>
<!-- 11&#45;&gt;12 -->
<g id="edge24" class="edge">
<title>11&#45;&gt;12</title>
<path fill="none" stroke="grey" stroke-width="2" d="M1000,-143.7C1000,-135.98 1000,-126.71 1000,-118.11"/>
<polygon fill="grey" stroke="grey" stroke-width="2" points="1003.5,-118.1 1000,-108.1 996.5,-118.1 1003.5,-118.1"/>
</g>
<!-- 12&#45;&gt;0 -->
<g id="edge2" class="edge">
<title>12&#45;&gt;0</title>
<path fill="none" stroke="grey" stroke-width="2" d="M955.39,-75.42C950.56,-74.17 945.69,-73 941,-72 815.71,-45.42 664.44,-29.02 595.5,-22.39"/>
<polygon fill="grey" stroke="grey" stroke-width="2" points="595.45,-18.87 585.16,-21.41 594.79,-25.84 595.45,-18.87"/>
</g>
<!-- 13&#45;&gt;0 -->
<g id="edge15" class="edge">
<title>13&#45;&gt;0</title>
<path fill="none" stroke="grey" stroke-width="2" d="M661.94,-215.64C656.84,-205.44 650.59,-192.19 646,-180 628.4,-133.27 641.13,-114.56 615,-72 608.32,-61.11 598.8,-51.04 589.45,-42.66"/>
<polygon fill="grey" stroke="grey" stroke-width="2" points="591.58,-39.88 581.7,-36.05 587.03,-45.2 591.58,-39.88"/>
</g>
<!-- 14 -->
<g id="node15" class="node">
<title>14</title>
<path fill="none" stroke="#56a9d8" stroke-width="2" d="M761,-180C761,-180 667,-180 667,-180 661,-180 655,-174 655,-168 655,-168 655,-156 655,-156 655,-150 661,-144 667,-144 667,-144 761,-144 761,-144 767,-144 773,-150 773,-156 773,-156 773,-168 773,-168 773,-174 767,-180 761,-180"/>
<text text-anchor="middle" x="714" y="-159.5" font-family="sans" font-size="10.00">seqkit_stats_decontam</text>
</g>
<!-- 13&#45;&gt;14 -->
<g id="edge26" class="edge">
<title>13&#45;&gt;14</title>
<path fill="none" stroke="grey" stroke-width="2" d="M681.63,-215.7C686.63,-207.56 692.69,-197.69 698.21,-188.7"/>
<polygon fill="grey" stroke="grey" stroke-width="2" points="701.24,-190.46 703.49,-180.1 695.28,-186.79 701.24,-190.46"/>
</g>
<!-- 15 -->
<g id="node16" class="node">
<title>15</title>
<path fill="none" stroke="#56c1d8" stroke-width="2" d="M587,-180C587,-180 519,-180 519,-180 513,-180 507,-174 507,-168 507,-168 507,-156 507,-156 507,-150 513,-144 519,-144 519,-144 587,-144 587,-144 593,-144 599,-150 599,-156 599,-156 599,-168 599,-168 599,-174 593,-180 587,-180"/>
<text text-anchor="middle" x="553" y="-159.5" font-family="sans" font-size="10.00">fastqc_decontam</text>
</g>
<!-- 13&#45;&gt;15 -->
<g id="edge27" class="edge">
<title>13&#45;&gt;15</title>
<path fill="none" stroke="grey" stroke-width="2" d="M642.13,-215.88C626.71,-206.72 607.52,-195.34 590.9,-185.48"/>
<polygon fill="grey" stroke="grey" stroke-width="2" points="592.36,-182.28 581.98,-180.19 588.79,-188.3 592.36,-182.28"/>
</g>
<!-- 14&#45;&gt;0 -->
<g id="edge9" class="edge">
<title>14&#45;&gt;0</title>
<path fill="none" stroke="grey" stroke-width="2" d="M739.08,-143.71C762.62,-125.36 791.64,-95.79 773,-72 751.34,-44.35 651.07,-29.17 595.44,-22.75"/>
<polygon fill="grey" stroke="grey" stroke-width="2" points="595.6,-19.24 585.27,-21.61 594.82,-26.2 595.6,-19.24"/>
</g>
<!-- 14&#45;&gt;17 -->
<g id="edge30" class="edge">
<title>14&#45;&gt;17</title>
<path fill="none" stroke="grey" stroke-width="2" d="M713.75,-143.7C713.64,-135.98 713.51,-126.71 713.39,-118.11"/>
<polygon fill="grey" stroke="grey" stroke-width="2" points="716.89,-118.05 713.24,-108.1 709.89,-118.15 716.89,-118.05"/>
</g>
<!-- 15&#45;&gt;0 -->
<g id="edge8" class="edge">
<title>15&#45;&gt;0</title>
<path fill="none" stroke="grey" stroke-width="2" d="M529.25,-143.91C518.45,-134.65 506.8,-122.2 501,-108 494.95,-93.19 494.61,-86.67 501,-72 505.93,-60.68 514.61,-50.68 523.73,-42.51"/>
<polygon fill="grey" stroke="grey" stroke-width="2" points="525.99,-45.19 531.42,-36.09 521.5,-39.81 525.99,-45.19"/>
</g>
<!-- 16 -->
<g id="node17" class="node">
<title>16</title>
<path fill="none" stroke="#56d863" stroke-width="2" d="M594,-108C594,-108 522,-108 522,-108 516,-108 510,-102 510,-96 510,-96 510,-84 510,-84 510,-78 516,-72 522,-72 522,-72 594,-72 594,-72 600,-72 606,-78 606,-84 606,-84 606,-96 606,-96 606,-102 600,-108 594,-108"/>
<text text-anchor="middle" x="558" y="-87.5" font-family="sans" font-size="10.00">multiqc_decontam</text>
</g>
<!-- 15&#45;&gt;16 -->
<g id="edge28" class="edge">
<title>15&#45;&gt;16</title>
<path fill="none" stroke="grey" stroke-width="2" d="M554.24,-143.7C554.79,-135.98 555.45,-126.71 556.06,-118.11"/>
<polygon fill="grey" stroke="grey" stroke-width="2" points="559.56,-118.33 556.78,-108.1 552.57,-117.83 559.56,-118.33"/>
</g>
<!-- 16&#45;&gt;0 -->
<g id="edge6" class="edge">
<title>16&#45;&gt;0</title>
<path fill="none" stroke="grey" stroke-width="2" d="M558,-71.7C558,-63.98 558,-54.71 558,-46.11"/>
<polygon fill="grey" stroke="grey" stroke-width="2" points="561.5,-46.1 558,-36.1 554.5,-46.1 561.5,-46.1"/>
</g>
<!-- 17&#45;&gt;0 -->
<g id="edge12" class="edge">
<title>17&#45;&gt;0</title>
<path fill="none" stroke="grey" stroke-width="2" d="M675.08,-71.88C650.56,-60.8 618.8,-46.46 594.55,-35.5"/>
<polygon fill="grey" stroke="grey" stroke-width="2" points="595.87,-32.26 585.32,-31.34 592.99,-38.64 595.87,-32.26"/>
</g>
</g>
</svg>
