<?xml version="1.0" encoding="UTF-8" standalone="no"?>
<!DOCTYPE svg PUBLIC "-//W3C//DTD SVG 1.1//EN"
 "http://www.w3.org/Graphics/SVG/1.1/DTD/svg11.dtd">
<!-- Generated by graphviz version 6.0.1 (0)
 -->
<!-- Title: snakemake_dag Pages: 1 -->
<svg width="708pt" height="620pt"
 viewBox="0.00 0.00 708.00 620.00" xmlns="http://www.w3.org/2000/svg" xmlns:xlink="http://www.w3.org/1999/xlink">
<g id="graph0" class="graph" transform="scale(1 1) rotate(0) translate(4 616)">
<title>snakemake_dag</title>
<polygon fill="white" stroke="none" points="-4,4 -4,-616 704,-616 704,4 -4,4"/>
<!-- 0 -->
<g id="node1" class="node">
<title>0</title>
<path fill="none" stroke="#569ad8" stroke-width="2" d="M349,-36C349,-36 319,-36 319,-36 313,-36 307,-30 307,-24 307,-24 307,-12 307,-12 307,-6 313,0 319,0 319,0 349,0 349,0 355,0 361,-6 361,-12 361,-12 361,-24 361,-24 361,-30 355,-36 349,-36"/>
<text text-anchor="middle" x="334" y="-15.5" font-family="sans" font-size="10.00">all</text>
</g>
<!-- 1 -->
<g id="node2" class="node">
<title>1</title>
<path fill="none" stroke="#56d89a" stroke-width="2" d="M383,-108C383,-108 285,-108 285,-108 279,-108 273,-102 273,-96 273,-96 273,-84 273,-84 273,-78 279,-72 285,-72 285,-72 383,-72 383,-72 389,-72 395,-78 395,-84 395,-84 395,-96 395,-96 395,-102 389,-108 383,-108"/>
<text text-anchor="middle" x="334" y="-87.5" font-family="sans" font-size="10.00">deploy_to_github_pages</text>
</g>
<!-- 1&#45;&gt;0 -->
<g id="edge1" class="edge">
<title>1&#45;&gt;0</title>
<path fill="none" stroke="grey" stroke-width="2" d="M334,-71.7C334,-63.98 334,-54.71 334,-46.11"/>
<polygon fill="grey" stroke="grey" stroke-width="2" points="337.5,-46.1 334,-36.1 330.5,-46.1 337.5,-46.1"/>
</g>
<!-- 2 -->
<g id="node3" class="node">
<title>2</title>
<path fill="none" stroke="#5682d8" stroke-width="2" d="M181,-180C181,-180 79,-180 79,-180 73,-180 67,-174 67,-168 67,-168 67,-156 67,-156 67,-150 73,-144 79,-144 79,-144 181,-144 181,-144 187,-144 193,-150 193,-156 193,-156 193,-168 193,-168 193,-174 187,-180 181,-180"/>
<text text-anchor="middle" x="130" y="-159.5" font-family="sans" font-size="10.00">static_snakemake_report</text>
</g>
<!-- 2&#45;&gt;1 -->
<g id="edge11" class="edge">
<title>2&#45;&gt;1</title>
<path fill="none" stroke="grey" stroke-width="2" d="M179.64,-143.97C208.27,-134.14 244.45,-121.73 274.58,-111.39"/>
<polygon fill="grey" stroke="grey" stroke-width="2" points="275.81,-114.67 284.13,-108.11 273.54,-108.05 275.81,-114.67"/>
</g>
<!-- 3 -->
<g id="node4" class="node">
<title>3</title>
<path fill="none" stroke="#56b1d8" stroke-width="2" d="M306.5,-180C306.5,-180 261.5,-180 261.5,-180 255.5,-180 249.5,-174 249.5,-168 249.5,-168 249.5,-156 249.5,-156 249.5,-150 255.5,-144 261.5,-144 261.5,-144 306.5,-144 306.5,-144 312.5,-144 318.5,-150 318.5,-156 318.5,-156 318.5,-168 318.5,-168 318.5,-174 312.5,-180 306.5,-180"/>
<text text-anchor="middle" x="284" y="-159.5" font-family="sans" font-size="10.00">plot_qc_hist</text>
</g>
<!-- 3&#45;&gt;1 -->
<g id="edge9" class="edge">
<title>3&#45;&gt;1</title>
<path fill="none" stroke="grey" stroke-width="2" d="M296.36,-143.7C302.23,-135.47 309.37,-125.48 315.84,-116.42"/>
<polygon fill="grey" stroke="grey" stroke-width="2" points="318.82,-118.28 321.78,-108.1 313.12,-114.21 318.82,-118.28"/>
</g>
<!-- 4 -->
<g id="node5" class="node">
<title>4</title>
<path fill="none" stroke="#56d8c9" stroke-width="2" d="M126.5,-252C126.5,-252 59.5,-252 59.5,-252 53.5,-252 47.5,-246 47.5,-240 47.5,-240 47.5,-228 47.5,-228 47.5,-222 53.5,-216 59.5,-216 59.5,-216 126.5,-216 126.5,-216 132.5,-216 138.5,-222 138.5,-228 138.5,-228 138.5,-240 138.5,-240 138.5,-246 132.5,-252 126.5,-252"/>
<text text-anchor="middle" x="93" y="-231.5" font-family="sans" font-size="10.00">seqkit_stats_raw</text>
</g>
<!-- 4&#45;&gt;3 -->
<g id="edge13" class="edge">
<title>4&#45;&gt;3</title>
<path fill="none" stroke="grey" stroke-width="2" d="M138.75,-216.23C169.42,-204.99 209.59,-190.27 239.91,-179.16"/>
<polygon fill="grey" stroke="grey" stroke-width="2" points="241.2,-182.41 249.39,-175.69 238.79,-175.84 241.2,-182.41"/>
</g>
<!-- 19 -->
<g id="node20" class="node">
<title>19</title>
<path fill="none" stroke="#b6d856" stroke-width="2" d="M100,-108C100,-108 12,-108 12,-108 6,-108 0,-102 0,-96 0,-96 0,-84 0,-84 0,-78 6,-72 12,-72 12,-72 100,-72 100,-72 106,-72 112,-78 112,-84 112,-84 112,-96 112,-96 112,-102 106,-108 100,-108"/>
<text text-anchor="middle" x="56" y="-87.5" font-family="sans" font-size="10.00">mothur_mapping_files</text>
</g>
<!-- 4&#45;&gt;19 -->
<g id="edge28" class="edge">
<title>4&#45;&gt;19</title>
<path fill="none" stroke="grey" stroke-width="2" d="M59.64,-215.86C46.29,-207.09 32.36,-195.06 25,-180 14.94,-159.41 25.17,-134.7 36.5,-116.55"/>
<polygon fill="grey" stroke="grey" stroke-width="2" points="39.42,-118.48 42.06,-108.22 33.6,-114.59 39.42,-118.48"/>
</g>
<!-- 20 -->
<g id="node21" class="node">
<title>20</title>
<path fill="none" stroke="#ced856" stroke-width="2" d="M238,-108C238,-108 152,-108 152,-108 146,-108 140,-102 140,-96 140,-96 140,-84 140,-84 140,-78 146,-72 152,-72 152,-72 238,-72 238,-72 244,-72 250,-78 250,-84 250,-84 250,-96 250,-96 250,-102 244,-108 238,-108"/>
<text text-anchor="middle" x="195" y="-87.5" font-family="sans" font-size="10.00">qiime2_mapping_files</text>
</g>
<!-- 4&#45;&gt;20 -->
<g id="edge29" class="edge">
<title>4&#45;&gt;20</title>
<path fill="none" stroke="grey" stroke-width="2" d="M77.01,-215.82C61.53,-197.04 42.51,-166.6 58,-144 66.88,-131.04 98.93,-118.29 129.8,-108.54"/>
<polygon fill="grey" stroke="grey" stroke-width="2" points="131.21,-111.76 139.75,-105.48 129.16,-105.07 131.21,-111.76"/>
</g>
<!-- 5 -->
<g id="node6" class="node">
<title>5</title>
<path fill="none" stroke="#d86e56" stroke-width="2" d="M256,-468C256,-468 186,-468 186,-468 180,-468 174,-462 174,-456 174,-456 174,-444 174,-444 174,-438 180,-432 186,-432 186,-432 256,-432 256,-432 262,-432 268,-438 268,-444 268,-444 268,-456 268,-456 268,-462 262,-468 256,-468"/>
<text text-anchor="middle" x="221" y="-447.5" font-family="sans" font-size="10.00">get_sra_rawreads</text>
</g>
<!-- 5&#45;&gt;4 -->
<g id="edge15" class="edge">
<title>5&#45;&gt;4</title>
<path fill="none" stroke="grey" stroke-width="2" d="M206.59,-431.86C198.37,-421.73 188.12,-408.48 180,-396 150.47,-350.63 121.71,-294.34 105.78,-261.76"/>
<polygon fill="grey" stroke="grey" stroke-width="2" points="108.77,-259.91 101.26,-252.45 102.48,-262.97 108.77,-259.91"/>
</g>
<!-- 9 -->
<g id="node10" class="node">
<title>9</title>
<path fill="none" stroke="#d88556" stroke-width="2" d="M515,-396C515,-396 445,-396 445,-396 439,-396 433,-390 433,-384 433,-384 433,-372 433,-372 433,-366 439,-360 445,-360 445,-360 515,-360 515,-360 521,-360 527,-366 527,-372 527,-372 527,-384 527,-384 527,-390 521,-396 515,-396"/>
<text text-anchor="middle" x="480" y="-375.5" font-family="sans" font-size="10.00">bbduk_trim_reads</text>
</g>
<!-- 5&#45;&gt;9 -->
<g id="edge19" class="edge">
<title>5&#45;&gt;9</title>
<path fill="none" stroke="grey" stroke-width="2" d="M268.2,-436.24C311.7,-424.49 376.35,-407.01 422.77,-394.47"/>
<polygon fill="grey" stroke="grey" stroke-width="2" points="423.94,-397.78 432.68,-391.79 422.12,-391.02 423.94,-397.78"/>
</g>
<!-- 14 -->
<g id="node15" class="node">
<title>14</title>
<path fill="none" stroke="#d85656" stroke-width="2" d="M241.5,-396C241.5,-396 200.5,-396 200.5,-396 194.5,-396 188.5,-390 188.5,-384 188.5,-384 188.5,-372 188.5,-372 188.5,-366 194.5,-360 200.5,-360 200.5,-360 241.5,-360 241.5,-360 247.5,-360 253.5,-366 253.5,-372 253.5,-372 253.5,-384 253.5,-384 253.5,-390 247.5,-396 241.5,-396"/>
<text text-anchor="middle" x="221" y="-375.5" font-family="sans" font-size="10.00">fastqc_raw</text>
</g>
<!-- 5&#45;&gt;14 -->
<g id="edge23" class="edge">
<title>5&#45;&gt;14</title>
<path fill="none" stroke="grey" stroke-width="2" d="M221,-431.7C221,-423.98 221,-414.71 221,-406.11"/>
<polygon fill="grey" stroke="grey" stroke-width="2" points="224.5,-406.1 221,-396.1 217.5,-406.1 224.5,-406.1"/>
</g>
<!-- 6 -->
<g id="node7" class="node">
<title>6</title>
<path fill="none" stroke="#56d882" stroke-width="2" d="M258,-540C258,-540 184,-540 184,-540 178,-540 172,-534 172,-528 172,-528 172,-516 172,-516 172,-510 178,-504 184,-504 184,-504 258,-504 258,-504 264,-504 270,-510 270,-516 270,-516 270,-528 270,-528 270,-534 264,-540 258,-540"/>
<text text-anchor="middle" x="221" y="-519.5" font-family="sans" font-size="10.00">get_sra_accession</text>
</g>
<!-- 6&#45;&gt;5 -->
<g id="edge16" class="edge">
<title>6&#45;&gt;5</title>
<path fill="none" stroke="grey" stroke-width="2" d="M221,-503.7C221,-495.98 221,-486.71 221,-478.11"/>
<polygon fill="grey" stroke="grey" stroke-width="2" points="224.5,-478.1 221,-468.1 217.5,-478.1 224.5,-478.1"/>
</g>
<!-- 7 -->
<g id="node8" class="node">
<title>7</title>
<path fill="none" stroke="#59d856" stroke-width="2" d="M256.5,-612C256.5,-612 185.5,-612 185.5,-612 179.5,-612 173.5,-606 173.5,-600 173.5,-600 173.5,-588 173.5,-588 173.5,-582 179.5,-576 185.5,-576 185.5,-576 256.5,-576 256.5,-576 262.5,-576 268.5,-582 268.5,-588 268.5,-588 268.5,-600 268.5,-600 268.5,-606 262.5,-612 256.5,-612"/>
<text text-anchor="middle" x="221" y="-591.5" font-family="sans" font-size="10.00">get_sra_metadata</text>
</g>
<!-- 7&#45;&gt;6 -->
<g id="edge17" class="edge">
<title>7&#45;&gt;6</title>
<path fill="none" stroke="grey" stroke-width="2" d="M221,-575.7C221,-567.98 221,-558.71 221,-550.11"/>
<polygon fill="grey" stroke="grey" stroke-width="2" points="224.5,-550.1 221,-540.1 217.5,-550.1 224.5,-550.1"/>
</g>
<!-- 8 -->
<g id="node9" class="node">
<title>8</title>
<path fill="none" stroke="#d8cb56" stroke-width="2" d="M388,-324C388,-324 302,-324 302,-324 296,-324 290,-318 290,-312 290,-312 290,-300 290,-300 290,-294 296,-288 302,-288 302,-288 388,-288 388,-288 394,-288 400,-294 400,-300 400,-300 400,-312 400,-312 400,-318 394,-324 388,-324"/>
<text text-anchor="middle" x="345" y="-303.5" font-family="sans" font-size="10.00">seqkit_stats_trimmed</text>
</g>
<!-- 8&#45;&gt;3 -->
<g id="edge12" class="edge">
<title>8&#45;&gt;3</title>
<path fill="none" stroke="grey" stroke-width="2" d="M319.52,-287.89C308.07,-278.71 295.65,-266.33 289,-252 280.07,-232.76 279.27,-208.6 280.45,-190.31"/>
<polygon fill="grey" stroke="grey" stroke-width="2" points="283.94,-190.57 281.33,-180.3 276.97,-189.96 283.94,-190.57"/>
</g>
<!-- 9&#45;&gt;0 -->
<g id="edge2" class="edge">
<title>9&#45;&gt;0</title>
<path fill="none" stroke="grey" stroke-width="2" d="M527.02,-373.52C566.14,-368.38 621.19,-355.62 658,-324 691.18,-295.5 700,-278.74 700,-235 700,-235 700,-235 700,-161 700,-91.02 464.53,-41.95 371.33,-25.26"/>
<polygon fill="grey" stroke="grey" stroke-width="2" points="371.67,-21.77 361.21,-23.48 370.45,-28.66 371.67,-21.77"/>
</g>
<!-- 9&#45;&gt;8 -->
<g id="edge18" class="edge">
<title>9&#45;&gt;8</title>
<path fill="none" stroke="grey" stroke-width="2" d="M446.98,-359.88C428.92,-350.51 406.35,-338.81 387.05,-328.8"/>
<polygon fill="grey" stroke="grey" stroke-width="2" points="388.64,-325.69 378.15,-324.19 385.42,-331.9 388.64,-325.69"/>
</g>
<!-- 11 -->
<g id="node12" class="node">
<title>11</title>
<path fill="none" stroke="#566bd8" stroke-width="2" d="M513.5,-324C513.5,-324 446.5,-324 446.5,-324 440.5,-324 434.5,-318 434.5,-312 434.5,-312 434.5,-300 434.5,-300 434.5,-294 440.5,-288 446.5,-288 446.5,-288 513.5,-288 513.5,-288 519.5,-288 525.5,-294 525.5,-300 525.5,-300 525.5,-312 525.5,-312 525.5,-318 519.5,-324 513.5,-324"/>
<text text-anchor="middle" x="480" y="-303.5" font-family="sans" font-size="10.00">bbduk_decontam</text>
</g>
<!-- 9&#45;&gt;11 -->
<g id="edge21" class="edge">
<title>9&#45;&gt;11</title>
<path fill="none" stroke="grey" stroke-width="2" d="M480,-359.7C480,-351.98 480,-342.71 480,-334.11"/>
<polygon fill="grey" stroke="grey" stroke-width="2" points="483.5,-334.1 480,-324.1 476.5,-334.1 483.5,-334.1"/>
</g>
<!-- 16 -->
<g id="node17" class="node">
<title>16</title>
<path fill="none" stroke="#56c9d8" stroke-width="2" d="M637,-324C637,-324 577,-324 577,-324 571,-324 565,-318 565,-312 565,-312 565,-300 565,-300 565,-294 571,-288 577,-288 577,-288 637,-288 637,-288 643,-288 649,-294 649,-300 649,-300 649,-312 649,-312 649,-318 643,-324 637,-324"/>
<text text-anchor="middle" x="607" y="-303.5" font-family="sans" font-size="10.00">fastqc_trimmed</text>
</g>
<!-- 9&#45;&gt;16 -->
<g id="edge25" class="edge">
<title>9&#45;&gt;16</title>
<path fill="none" stroke="grey" stroke-width="2" d="M511.07,-359.88C527.83,-350.64 548.71,-339.13 566.7,-329.21"/>
<polygon fill="grey" stroke="grey" stroke-width="2" points="568.74,-332.08 575.81,-324.19 565.37,-325.95 568.74,-332.08"/>
</g>
<!-- 10 -->
<g id="node11" class="node">
<title>10</title>
<path fill="none" stroke="#9fd856" stroke-width="2" d="M404,-252C404,-252 310,-252 310,-252 304,-252 298,-246 298,-240 298,-240 298,-228 298,-228 298,-222 304,-216 310,-216 310,-216 404,-216 404,-216 410,-216 416,-222 416,-228 416,-228 416,-240 416,-240 416,-246 410,-252 404,-252"/>
<text text-anchor="middle" x="357" y="-231.5" font-family="sans" font-size="10.00">seqkit_stats_decontam</text>
</g>
<!-- 10&#45;&gt;3 -->
<g id="edge14" class="edge">
<title>10&#45;&gt;3</title>
<path fill="none" stroke="grey" stroke-width="2" d="M338.96,-215.7C329.94,-207.05 318.88,-196.45 309.06,-187.03"/>
<polygon fill="grey" stroke="grey" stroke-width="2" points="311.48,-184.5 301.84,-180.1 306.63,-189.55 311.48,-184.5"/>
</g>
<!-- 11&#45;&gt;0 -->
<g id="edge5" class="edge">
<title>11&#45;&gt;0</title>
<path fill="none" stroke="grey" stroke-width="2" d="M503.88,-287.98C515.14,-278.66 527.68,-266.13 535,-252 557.18,-209.15 569.93,-185.89 546,-144 508.43,-78.23 421.22,-43.6 371.15,-28.53"/>
<polygon fill="grey" stroke="grey" stroke-width="2" points="371.93,-25.11 361.35,-25.69 369.98,-31.84 371.93,-25.11"/>
</g>
<!-- 11&#45;&gt;10 -->
<g id="edge20" class="edge">
<title>11&#45;&gt;10</title>
<path fill="none" stroke="grey" stroke-width="2" d="M449.91,-287.88C433.68,-278.64 413.46,-267.13 396.03,-257.21"/>
<polygon fill="grey" stroke="grey" stroke-width="2" points="397.63,-254.09 387.2,-252.19 394.16,-260.18 397.63,-254.09"/>
</g>
<!-- 18 -->
<g id="node19" class="node">
<title>18</title>
<path fill="none" stroke="#88d856" stroke-width="2" d="M514,-252C514,-252 446,-252 446,-252 440,-252 434,-246 434,-240 434,-240 434,-228 434,-228 434,-222 440,-216 446,-216 446,-216 514,-216 514,-216 520,-216 526,-222 526,-228 526,-228 526,-240 526,-240 526,-246 520,-252 514,-252"/>
<text text-anchor="middle" x="480" y="-231.5" font-family="sans" font-size="10.00">fastqc_decontam</text>
</g>
<!-- 11&#45;&gt;18 -->
<g id="edge27" class="edge">
<title>11&#45;&gt;18</title>
<path fill="none" stroke="grey" stroke-width="2" d="M480,-287.7C480,-279.98 480,-270.71 480,-262.11"/>
<polygon fill="grey" stroke="grey" stroke-width="2" points="483.5,-262.1 480,-252.1 476.5,-262.1 483.5,-262.1"/>
</g>
<!-- 12 -->
<g id="node13" class="node">
<title>12</title>
<path fill="none" stroke="#d89c56" stroke-width="2" d="M525,-180C525,-180 463,-180 463,-180 457,-180 451,-174 451,-168 451,-168 451,-156 451,-156 451,-150 457,-144 463,-144 463,-144 525,-144 525,-144 531,-144 537,-150 537,-156 537,-156 537,-168 537,-168 537,-174 531,-180 525,-180"/>
<text text-anchor="middle" x="494" y="-159.5" font-family="sans" font-size="10.00">dot_rules_graph</text>
</g>
<!-- 12&#45;&gt;1 -->
<g id="edge7" class="edge">
<title>12&#45;&gt;1</title>
<path fill="none" stroke="grey" stroke-width="2" d="M454.86,-143.88C432.99,-134.31 405.54,-122.3 382.34,-112.15"/>
<polygon fill="grey" stroke="grey" stroke-width="2" points="383.58,-108.87 373.01,-108.07 380.77,-115.28 383.58,-108.87"/>
</g>
<!-- 13 -->
<g id="node14" class="node">
<title>13</title>
<path fill="none" stroke="#56d8b1" stroke-width="2" d="M243.5,-324C243.5,-324 198.5,-324 198.5,-324 192.5,-324 186.5,-318 186.5,-312 186.5,-312 186.5,-300 186.5,-300 186.5,-294 192.5,-288 198.5,-288 198.5,-288 243.5,-288 243.5,-288 249.5,-288 255.5,-294 255.5,-300 255.5,-300 255.5,-312 255.5,-312 255.5,-318 249.5,-324 243.5,-324"/>
<text text-anchor="middle" x="221" y="-303.5" font-family="sans" font-size="10.00">multiqc_raw</text>
</g>
<!-- 13&#45;&gt;1 -->
<g id="edge6" class="edge">
<title>13&#45;&gt;1</title>
<path fill="none" stroke="grey" stroke-width="2" d="M218.44,-287.79C214.71,-256.35 211.15,-188.76 241,-144 249.71,-130.94 262.8,-120.72 276.44,-112.9"/>
<polygon fill="grey" stroke="grey" stroke-width="2" points="278.26,-115.9 285.43,-108.1 274.96,-109.72 278.26,-115.9"/>
</g>
<!-- 14&#45;&gt;13 -->
<g id="edge22" class="edge">
<title>14&#45;&gt;13</title>
<path fill="none" stroke="grey" stroke-width="2" d="M221,-359.7C221,-351.98 221,-342.71 221,-334.11"/>
<polygon fill="grey" stroke="grey" stroke-width="2" points="224.5,-334.1 221,-324.1 217.5,-334.1 224.5,-334.1"/>
</g>
<!-- 15 -->
<g id="node16" class="node">
<title>15</title>
<path fill="none" stroke="#d8b456" stroke-width="2" d="M659.5,-252C659.5,-252 594.5,-252 594.5,-252 588.5,-252 582.5,-246 582.5,-240 582.5,-240 582.5,-228 582.5,-228 582.5,-222 588.5,-216 594.5,-216 594.5,-216 659.5,-216 659.5,-216 665.5,-216 671.5,-222 671.5,-228 671.5,-228 671.5,-240 671.5,-240 671.5,-246 665.5,-252 659.5,-252"/>
<text text-anchor="middle" x="627" y="-231.5" font-family="sans" font-size="10.00">multiqc_trimmed</text>
</g>
<!-- 15&#45;&gt;1 -->
<g id="edge8" class="edge">
<title>15&#45;&gt;1</title>
<path fill="none" stroke="grey" stroke-width="2" d="M616.04,-215.79C602.2,-195.49 576.49,-162.22 546,-144 503.19,-118.41 448.44,-105.13 405.31,-98.26"/>
<polygon fill="grey" stroke="grey" stroke-width="2" points="405.58,-94.76 395.17,-96.73 404.53,-101.68 405.58,-94.76"/>
</g>
<!-- 16&#45;&gt;15 -->
<g id="edge24" class="edge">
<title>16&#45;&gt;15</title>
<path fill="none" stroke="grey" stroke-width="2" d="M611.94,-287.7C614.17,-279.9 616.85,-270.51 619.33,-261.83"/>
<polygon fill="grey" stroke="grey" stroke-width="2" points="622.73,-262.68 622.11,-252.1 616,-260.76 622.73,-262.68"/>
</g>
<!-- 17 -->
<g id="node18" class="node">
<title>17</title>
<path fill="none" stroke="#70d856" stroke-width="2" d="M421,-180C421,-180 349,-180 349,-180 343,-180 337,-174 337,-168 337,-168 337,-156 337,-156 337,-150 343,-144 349,-144 349,-144 421,-144 421,-144 427,-144 433,-150 433,-156 433,-156 433,-168 433,-168 433,-174 427,-180 421,-180"/>
<text text-anchor="middle" x="385" y="-159.5" font-family="sans" font-size="10.00">multiqc_decontam</text>
</g>
<!-- 17&#45;&gt;1 -->
<g id="edge10" class="edge">
<title>17&#45;&gt;1</title>
<path fill="none" stroke="grey" stroke-width="2" d="M372.39,-143.7C366.4,-135.47 359.12,-125.48 352.52,-116.42"/>
<polygon fill="grey" stroke="grey" stroke-width="2" points="355.18,-114.13 346.46,-108.1 349.52,-118.25 355.18,-114.13"/>
</g>
<!-- 18&#45;&gt;17 -->
<g id="edge26" class="edge">
<title>18&#45;&gt;17</title>
<path fill="none" stroke="grey" stroke-width="2" d="M456.52,-215.7C444.44,-206.8 429.55,-195.82 416.48,-186.2"/>
<polygon fill="grey" stroke="grey" stroke-width="2" points="418.34,-183.22 408.21,-180.1 414.19,-188.85 418.34,-183.22"/>
</g>
<!-- 19&#45;&gt;0 -->
<g id="edge4" class="edge">
<title>19&#45;&gt;0</title>
<path fill="none" stroke="grey" stroke-width="2" d="M112.26,-74.83C167.39,-60.95 249.83,-40.19 297.11,-28.29"/>
<polygon fill="grey" stroke="grey" stroke-width="2" points="298.09,-31.65 306.93,-25.82 296.38,-24.86 298.09,-31.65"/>
</g>
<!-- 20&#45;&gt;0 -->
<g id="edge3" class="edge">
<title>20&#45;&gt;0</title>
<path fill="none" stroke="grey" stroke-width="2" d="M229,-71.88C249.87,-61.37 276.56,-47.92 297.82,-37.22"/>
<polygon fill="grey" stroke="grey" stroke-width="2" points="299.5,-40.29 306.86,-32.67 296.35,-34.04 299.5,-40.29"/>
</g>
</g>
</svg>
