<?xml version="1.0" encoding="UTF-8" standalone="no"?>
<!DOCTYPE svg PUBLIC "-//W3C//DTD SVG 1.1//EN"
 "http://www.w3.org/Graphics/SVG/1.1/DTD/svg11.dtd">
<!-- Generated by graphviz version 6.0.1 (0)
 -->
<!-- Title: snakemake_dag Pages: 1 -->
<svg width="492pt" height="620pt"
 viewBox="0.00 0.00 492.00 620.00" xmlns="http://www.w3.org/2000/svg" xmlns:xlink="http://www.w3.org/1999/xlink">
<g id="graph0" class="graph" transform="scale(1 1) rotate(0) translate(4 616)">
<title>snakemake_dag</title>
<polygon fill="white" stroke="none" points="-4,4 -4,-616 488,-616 488,4 -4,4"/>
<!-- 0 -->
<g id="node1" class="node">
<title>0</title>
<path fill="none" stroke="#97d856" stroke-width="2" d="M171.5,-36C171.5,-36 141.5,-36 141.5,-36 135.5,-36 129.5,-30 129.5,-24 129.5,-24 129.5,-12 129.5,-12 129.5,-6 135.5,0 141.5,0 141.5,0 171.5,0 171.5,0 177.5,0 183.5,-6 183.5,-12 183.5,-12 183.5,-24 183.5,-24 183.5,-30 177.5,-36 171.5,-36"/>
<text text-anchor="middle" x="156.5" y="-15.5" font-family="sans" font-size="10.00">all</text>
</g>
<!-- 1 -->
<g id="node2" class="node">
<title>1</title>
<path fill="none" stroke="#56d8d0" stroke-width="2" d="M263.5,-108C263.5,-108 165.5,-108 165.5,-108 159.5,-108 153.5,-102 153.5,-96 153.5,-96 153.5,-84 153.5,-84 153.5,-78 159.5,-72 165.5,-72 165.5,-72 263.5,-72 263.5,-72 269.5,-72 275.5,-78 275.5,-84 275.5,-84 275.5,-96 275.5,-96 275.5,-102 269.5,-108 263.5,-108"/>
<text text-anchor="middle" x="214.5" y="-87.5" font-family="sans" font-size="10.00">deploy_to_github_pages</text>
</g>
<!-- 1&#45;&gt;0 -->
<g id="edge2" class="edge">
<title>1&#45;&gt;0</title>
<path fill="none" stroke="grey" stroke-width="2" d="M200.16,-71.7C193.21,-63.3 184.73,-53.07 177.1,-43.86"/>
<polygon fill="grey" stroke="grey" stroke-width="2" points="179.75,-41.57 170.67,-36.1 174.36,-46.04 179.75,-41.57"/>
</g>
<!-- 2 -->
<g id="node3" class="node">
<title>2</title>
<path fill="none" stroke="#d85656" stroke-width="2" d="M201.5,-180C201.5,-180 99.5,-180 99.5,-180 93.5,-180 87.5,-174 87.5,-168 87.5,-168 87.5,-156 87.5,-156 87.5,-150 93.5,-144 99.5,-144 99.5,-144 201.5,-144 201.5,-144 207.5,-144 213.5,-150 213.5,-156 213.5,-156 213.5,-168 213.5,-168 213.5,-174 207.5,-180 201.5,-180"/>
<text text-anchor="middle" x="150.5" y="-159.5" font-family="sans" font-size="10.00">static_snakemake_report</text>
</g>
<!-- 2&#45;&gt;1 -->
<g id="edge5" class="edge">
<title>2&#45;&gt;1</title>
<path fill="none" stroke="grey" stroke-width="2" d="M166.32,-143.7C174.07,-135.22 183.54,-124.86 192.02,-115.58"/>
<polygon fill="grey" stroke="grey" stroke-width="2" points="194.7,-117.85 198.86,-108.1 189.53,-113.12 194.7,-117.85"/>
</g>
<!-- 3 -->
<g id="node4" class="node">
<title>3</title>
<path fill="none" stroke="#b6d856" stroke-width="2" d="M57,-180C57,-180 12,-180 12,-180 6,-180 0,-174 0,-168 0,-168 0,-156 0,-156 0,-150 6,-144 12,-144 12,-144 57,-144 57,-144 63,-144 69,-150 69,-156 69,-156 69,-168 69,-168 69,-174 63,-180 57,-180"/>
<text text-anchor="middle" x="34.5" y="-159.5" font-family="sans" font-size="10.00">plot_qc_hist</text>
</g>
<!-- 3&#45;&gt;0 -->
<g id="edge1" class="edge">
<title>3&#45;&gt;0</title>
<path fill="none" stroke="grey" stroke-width="2" d="M49.22,-143.87C70.56,-119.03 110.24,-72.85 134.9,-44.14"/>
<polygon fill="grey" stroke="grey" stroke-width="2" points="137.87,-46.06 141.73,-36.19 132.56,-41.49 137.87,-46.06"/>
</g>
<!-- 3&#45;&gt;1 -->
<g id="edge3" class="edge">
<title>3&#45;&gt;1</title>
<path fill="none" stroke="grey" stroke-width="2" d="M69.21,-147.5C95.29,-137.36 131.5,-123.28 161.25,-111.71"/>
<polygon fill="grey" stroke="grey" stroke-width="2" points="162.6,-114.94 170.65,-108.05 160.07,-108.41 162.6,-114.94"/>
</g>
<!-- 4 -->
<g id="node5" class="node">
<title>4</title>
<path fill="none" stroke="#56d89a" stroke-width="2" d="M124,-396C124,-396 57,-396 57,-396 51,-396 45,-390 45,-384 45,-384 45,-372 45,-372 45,-366 51,-360 57,-360 57,-360 124,-360 124,-360 130,-360 136,-366 136,-372 136,-372 136,-384 136,-384 136,-390 130,-396 124,-396"/>
<text text-anchor="middle" x="90.5" y="-375.5" font-family="sans" font-size="10.00">seqkit_stats_raw</text>
</g>
<!-- 4&#45;&gt;3 -->
<g id="edge9" class="edge">
<title>4&#45;&gt;3</title>
<path fill="none" stroke="grey" stroke-width="2" d="M81.9,-359.68C77.12,-349.49 71.37,-336.24 67.5,-324 52.99,-278.04 43.26,-222.64 38.32,-190.27"/>
<polygon fill="grey" stroke="grey" stroke-width="2" points="41.76,-189.59 36.83,-180.22 34.84,-190.62 41.76,-189.59"/>
</g>
<!-- 5 -->
<g id="node6" class="node">
<title>5</title>
<path fill="none" stroke="#d8c356" stroke-width="2" d="M293.5,-468C293.5,-468 223.5,-468 223.5,-468 217.5,-468 211.5,-462 211.5,-456 211.5,-456 211.5,-444 211.5,-444 211.5,-438 217.5,-432 223.5,-432 223.5,-432 293.5,-432 293.5,-432 299.5,-432 305.5,-438 305.5,-444 305.5,-444 305.5,-456 305.5,-456 305.5,-462 299.5,-468 293.5,-468"/>
<text text-anchor="middle" x="258.5" y="-447.5" font-family="sans" font-size="10.00">get_sra_rawreads</text>
</g>
<!-- 5&#45;&gt;4 -->
<g id="edge11" class="edge">
<title>5&#45;&gt;4</title>
<path fill="none" stroke="grey" stroke-width="2" d="M217.4,-431.88C194.33,-422.26 165.36,-410.19 140.93,-400.01"/>
<polygon fill="grey" stroke="grey" stroke-width="2" points="142.04,-396.68 131.46,-396.07 139.35,-403.15 142.04,-396.68"/>
</g>
<!-- 9 -->
<g id="node10" class="node">
<title>9</title>
<path fill="none" stroke="#56a9d8" stroke-width="2" d="M293.5,-396C293.5,-396 223.5,-396 223.5,-396 217.5,-396 211.5,-390 211.5,-384 211.5,-384 211.5,-372 211.5,-372 211.5,-366 217.5,-360 223.5,-360 223.5,-360 293.5,-360 293.5,-360 299.5,-360 305.5,-366 305.5,-372 305.5,-372 305.5,-384 305.5,-384 305.5,-390 299.5,-396 293.5,-396"/>
<text text-anchor="middle" x="258.5" y="-375.5" font-family="sans" font-size="10.00">bbduk_trim_reads</text>
</g>
<!-- 5&#45;&gt;9 -->
<g id="edge15" class="edge">
<title>5&#45;&gt;9</title>
<path fill="none" stroke="grey" stroke-width="2" d="M258.5,-431.7C258.5,-423.98 258.5,-414.71 258.5,-406.11"/>
<polygon fill="grey" stroke="grey" stroke-width="2" points="262,-406.1 258.5,-396.1 255,-406.1 262,-406.1"/>
</g>
<!-- 13 -->
<g id="node14" class="node">
<title>13</title>
<path fill="none" stroke="#80d856" stroke-width="2" d="M420,-396C420,-396 379,-396 379,-396 373,-396 367,-390 367,-384 367,-384 367,-372 367,-372 367,-366 373,-360 379,-360 379,-360 420,-360 420,-360 426,-360 432,-366 432,-372 432,-372 432,-384 432,-384 432,-390 426,-396 420,-396"/>
<text text-anchor="middle" x="399.5" y="-375.5" font-family="sans" font-size="10.00">fastqc_raw</text>
</g>
<!-- 5&#45;&gt;13 -->
<g id="edge19" class="edge">
<title>5&#45;&gt;13</title>
<path fill="none" stroke="grey" stroke-width="2" d="M292.99,-431.88C312.51,-422.19 337.05,-410 357.66,-399.77"/>
<polygon fill="grey" stroke="grey" stroke-width="2" points="359.42,-402.81 366.82,-395.23 356.3,-396.54 359.42,-402.81"/>
</g>
<!-- 6 -->
<g id="node7" class="node">
<title>6</title>
<path fill="none" stroke="#56c1d8" stroke-width="2" d="M295.5,-540C295.5,-540 221.5,-540 221.5,-540 215.5,-540 209.5,-534 209.5,-528 209.5,-528 209.5,-516 209.5,-516 209.5,-510 215.5,-504 221.5,-504 221.5,-504 295.5,-504 295.5,-504 301.5,-504 307.5,-510 307.5,-516 307.5,-516 307.5,-528 307.5,-528 307.5,-534 301.5,-540 295.5,-540"/>
<text text-anchor="middle" x="258.5" y="-519.5" font-family="sans" font-size="10.00">get_sra_accession</text>
</g>
<!-- 6&#45;&gt;5 -->
<g id="edge12" class="edge">
<title>6&#45;&gt;5</title>
<path fill="none" stroke="grey" stroke-width="2" d="M258.5,-503.7C258.5,-495.98 258.5,-486.71 258.5,-478.11"/>
<polygon fill="grey" stroke="grey" stroke-width="2" points="262,-478.1 258.5,-468.1 255,-478.1 262,-478.1"/>
</g>
<!-- 7 -->
<g id="node8" class="node">
<title>7</title>
<path fill="none" stroke="#ced856" stroke-width="2" d="M294,-612C294,-612 223,-612 223,-612 217,-612 211,-606 211,-600 211,-600 211,-588 211,-588 211,-582 217,-576 223,-576 223,-576 294,-576 294,-576 300,-576 306,-582 306,-588 306,-588 306,-600 306,-600 306,-606 300,-612 294,-612"/>
<text text-anchor="middle" x="258.5" y="-591.5" font-family="sans" font-size="10.00">get_sra_metadata</text>
</g>
<!-- 7&#45;&gt;6 -->
<g id="edge13" class="edge">
<title>7&#45;&gt;6</title>
<path fill="none" stroke="grey" stroke-width="2" d="M258.5,-575.7C258.5,-567.98 258.5,-558.71 258.5,-550.11"/>
<polygon fill="grey" stroke="grey" stroke-width="2" points="262,-550.1 258.5,-540.1 255,-550.1 262,-550.1"/>
</g>
<!-- 8 -->
<g id="node9" class="node">
<title>8</title>
<path fill="none" stroke="#d88d56" stroke-width="2" d="M174.5,-324C174.5,-324 88.5,-324 88.5,-324 82.5,-324 76.5,-318 76.5,-312 76.5,-312 76.5,-300 76.5,-300 76.5,-294 82.5,-288 88.5,-288 88.5,-288 174.5,-288 174.5,-288 180.5,-288 186.5,-294 186.5,-300 186.5,-300 186.5,-312 186.5,-312 186.5,-318 180.5,-324 174.5,-324"/>
<text text-anchor="middle" x="131.5" y="-303.5" font-family="sans" font-size="10.00">seqkit_stats_trimmed</text>
</g>
<!-- 8&#45;&gt;3 -->
<g id="edge10" class="edge">
<title>8&#45;&gt;3</title>
<path fill="none" stroke="grey" stroke-width="2" d="M117.4,-287.65C109.28,-277.45 99.03,-264.2 90.5,-252 75.98,-231.23 60.75,-206.82 49.84,-188.82"/>
<polygon fill="grey" stroke="grey" stroke-width="2" points="52.71,-186.81 44.55,-180.05 46.71,-190.42 52.71,-186.81"/>
</g>
<!-- 9&#45;&gt;8 -->
<g id="edge14" class="edge">
<title>9&#45;&gt;8</title>
<path fill="none" stroke="grey" stroke-width="2" d="M227.43,-359.88C210.67,-350.64 189.79,-339.13 171.8,-329.21"/>
<polygon fill="grey" stroke="grey" stroke-width="2" points="173.13,-325.95 162.69,-324.19 169.76,-332.08 173.13,-325.95"/>
</g>
<!-- 11 -->
<g id="node12" class="node">
<title>11</title>
<path fill="none" stroke="#d8ac56" stroke-width="2" d="M292,-324C292,-324 225,-324 225,-324 219,-324 213,-318 213,-312 213,-312 213,-300 213,-300 213,-294 219,-288 225,-288 225,-288 292,-288 292,-288 298,-288 304,-294 304,-300 304,-300 304,-312 304,-312 304,-318 298,-324 292,-324"/>
<text text-anchor="middle" x="258.5" y="-303.5" font-family="sans" font-size="10.00">bbduk_decontam</text>
</g>
<!-- 9&#45;&gt;11 -->
<g id="edge17" class="edge">
<title>9&#45;&gt;11</title>
<path fill="none" stroke="grey" stroke-width="2" d="M258.5,-359.7C258.5,-351.98 258.5,-342.71 258.5,-334.11"/>
<polygon fill="grey" stroke="grey" stroke-width="2" points="262,-334.1 258.5,-324.1 255,-334.1 262,-334.1"/>
</g>
<!-- 15 -->
<g id="node16" class="node">
<title>15</title>
<path fill="none" stroke="#56d863" stroke-width="2" d="M398.5,-324C398.5,-324 338.5,-324 338.5,-324 332.5,-324 326.5,-318 326.5,-312 326.5,-312 326.5,-300 326.5,-300 326.5,-294 332.5,-288 338.5,-288 338.5,-288 398.5,-288 398.5,-288 404.5,-288 410.5,-294 410.5,-300 410.5,-300 410.5,-312 410.5,-312 410.5,-318 404.5,-324 398.5,-324"/>
<text text-anchor="middle" x="368.5" y="-303.5" font-family="sans" font-size="10.00">fastqc_trimmed</text>
</g>
<!-- 9&#45;&gt;15 -->
<g id="edge21" class="edge">
<title>9&#45;&gt;15</title>
<path fill="none" stroke="grey" stroke-width="2" d="M285.41,-359.88C299.66,-350.81 317.35,-339.55 332.74,-329.76"/>
<polygon fill="grey" stroke="grey" stroke-width="2" points="334.93,-332.51 341.49,-324.19 331.17,-326.61 334.93,-332.51"/>
</g>
<!-- 10 -->
<g id="node11" class="node">
<title>10</title>
<path fill="none" stroke="#61d856" stroke-width="2" d="M205.5,-252C205.5,-252 111.5,-252 111.5,-252 105.5,-252 99.5,-246 99.5,-240 99.5,-240 99.5,-228 99.5,-228 99.5,-222 105.5,-216 111.5,-216 111.5,-216 205.5,-216 205.5,-216 211.5,-216 217.5,-222 217.5,-228 217.5,-228 217.5,-240 217.5,-240 217.5,-246 211.5,-252 205.5,-252"/>
<text text-anchor="middle" x="158.5" y="-231.5" font-family="sans" font-size="10.00">seqkit_stats_decontam</text>
</g>
<!-- 10&#45;&gt;3 -->
<g id="edge8" class="edge">
<title>10&#45;&gt;3</title>
<path fill="none" stroke="grey" stroke-width="2" d="M128.17,-215.88C111.8,-206.64 91.42,-195.13 73.85,-185.21"/>
<polygon fill="grey" stroke="grey" stroke-width="2" points="75.38,-182.06 64.95,-180.19 71.94,-188.15 75.38,-182.06"/>
</g>
<!-- 11&#45;&gt;10 -->
<g id="edge16" class="edge">
<title>11&#45;&gt;10</title>
<path fill="none" stroke="grey" stroke-width="2" d="M234.04,-287.88C221.2,-278.89 205.3,-267.76 191.41,-258.03"/>
<polygon fill="grey" stroke="grey" stroke-width="2" points="193.26,-255.06 183.06,-252.19 189.24,-260.79 193.26,-255.06"/>
</g>
<!-- 17 -->
<g id="node18" class="node">
<title>17</title>
<path fill="none" stroke="#5673d8" stroke-width="2" d="M315.5,-252C315.5,-252 247.5,-252 247.5,-252 241.5,-252 235.5,-246 235.5,-240 235.5,-240 235.5,-228 235.5,-228 235.5,-222 241.5,-216 247.5,-216 247.5,-216 315.5,-216 315.5,-216 321.5,-216 327.5,-222 327.5,-228 327.5,-228 327.5,-240 327.5,-240 327.5,-246 321.5,-252 315.5,-252"/>
<text text-anchor="middle" x="281.5" y="-231.5" font-family="sans" font-size="10.00">fastqc_decontam</text>
</g>
<!-- 11&#45;&gt;17 -->
<g id="edge23" class="edge">
<title>11&#45;&gt;17</title>
<path fill="none" stroke="grey" stroke-width="2" d="M264.19,-287.7C266.75,-279.9 269.83,-270.51 272.68,-261.83"/>
<polygon fill="grey" stroke="grey" stroke-width="2" points="276.08,-262.7 275.88,-252.1 269.43,-260.51 276.08,-262.7"/>
</g>
<!-- 12 -->
<g id="node13" class="node">
<title>12</title>
<path fill="none" stroke="#568ad8" stroke-width="2" d="M472,-252C472,-252 427,-252 427,-252 421,-252 415,-246 415,-240 415,-240 415,-228 415,-228 415,-222 421,-216 427,-216 427,-216 472,-216 472,-216 478,-216 484,-222 484,-228 484,-228 484,-240 484,-240 484,-246 478,-252 472,-252"/>
<text text-anchor="middle" x="449.5" y="-231.5" font-family="sans" font-size="10.00">multiqc_raw</text>
</g>
<!-- 12&#45;&gt;1 -->
<g id="edge7" class="edge">
<title>12&#45;&gt;1</title>
<path fill="none" stroke="grey" stroke-width="2" d="M454.07,-215.73C458.17,-196 461.25,-163.88 444.5,-144 424.22,-119.93 345.46,-105.67 285.71,-98.1"/>
<polygon fill="grey" stroke="grey" stroke-width="2" points="285.9,-94.6 275.55,-96.86 285.05,-101.55 285.9,-94.6"/>
</g>
<!-- 13&#45;&gt;12 -->
<g id="edge18" class="edge">
<title>13&#45;&gt;12</title>
<path fill="none" stroke="grey" stroke-width="2" d="M406.14,-359.87C410.11,-349.52 415.2,-336.04 419.5,-324 426.93,-303.2 434.89,-279.51 440.75,-261.79"/>
<polygon fill="grey" stroke="grey" stroke-width="2" points="444.13,-262.72 443.93,-252.12 437.48,-260.53 444.13,-262.72"/>
</g>
<!-- 14 -->
<g id="node15" class="node">
<title>14</title>
<path fill="none" stroke="#56d8b9" stroke-width="2" d="M423,-180C423,-180 358,-180 358,-180 352,-180 346,-174 346,-168 346,-168 346,-156 346,-156 346,-150 352,-144 358,-144 358,-144 423,-144 423,-144 429,-144 435,-150 435,-156 435,-156 435,-168 435,-168 435,-174 429,-180 423,-180"/>
<text text-anchor="middle" x="390.5" y="-159.5" font-family="sans" font-size="10.00">multiqc_trimmed</text>
</g>
<!-- 14&#45;&gt;1 -->
<g id="edge4" class="edge">
<title>14&#45;&gt;1</title>
<path fill="none" stroke="grey" stroke-width="2" d="M347.45,-143.88C323.17,-134.22 292.66,-122.09 266.99,-111.88"/>
<polygon fill="grey" stroke="grey" stroke-width="2" points="268,-108.51 257.41,-108.07 265.41,-115.02 268,-108.51"/>
</g>
<!-- 15&#45;&gt;14 -->
<g id="edge20" class="edge">
<title>15&#45;&gt;14</title>
<path fill="none" stroke="grey" stroke-width="2" d="M371.15,-287.87C374.9,-263.67 381.79,-219.21 386.26,-190.39"/>
<polygon fill="grey" stroke="grey" stroke-width="2" points="389.76,-190.61 387.84,-180.19 382.85,-189.54 389.76,-190.61"/>
</g>
<!-- 16 -->
<g id="node17" class="node">
<title>16</title>
<path fill="none" stroke="#d87556" stroke-width="2" d="M315.5,-180C315.5,-180 243.5,-180 243.5,-180 237.5,-180 231.5,-174 231.5,-168 231.5,-168 231.5,-156 231.5,-156 231.5,-150 237.5,-144 243.5,-144 243.5,-144 315.5,-144 315.5,-144 321.5,-144 327.5,-150 327.5,-156 327.5,-156 327.5,-168 327.5,-168 327.5,-174 321.5,-180 315.5,-180"/>
<text text-anchor="middle" x="279.5" y="-159.5" font-family="sans" font-size="10.00">multiqc_decontam</text>
</g>
<!-- 16&#45;&gt;1 -->
<g id="edge6" class="edge">
<title>16&#45;&gt;1</title>
<path fill="none" stroke="grey" stroke-width="2" d="M263.43,-143.7C255.56,-135.22 245.94,-124.86 237.33,-115.58"/>
<polygon fill="grey" stroke="grey" stroke-width="2" points="239.75,-113.05 230.38,-108.1 234.62,-117.81 239.75,-113.05"/>
</g>
<!-- 17&#45;&gt;16 -->
<g id="edge22" class="edge">
<title>17&#45;&gt;16</title>
<path fill="none" stroke="grey" stroke-width="2" d="M281.01,-215.7C280.79,-207.98 280.52,-198.71 280.27,-190.11"/>
<polygon fill="grey" stroke="grey" stroke-width="2" points="283.77,-190 279.99,-180.1 276.78,-190.2 283.77,-190"/>
</g>
</g>
</svg>
