<?xml version="1.0" encoding="UTF-8" standalone="no"?>
<!DOCTYPE svg PUBLIC "-//W3C//DTD SVG 1.1//EN"
 "http://www.w3.org/Graphics/SVG/1.1/DTD/svg11.dtd">
<!-- Generated by graphviz version 6.0.1 (0)
 -->
<!-- Title: snakemake_dag Pages: 1 -->
<svg width="537pt" height="332pt"
 viewBox="0.00 0.00 537.00 332.00" xmlns="http://www.w3.org/2000/svg" xmlns:xlink="http://www.w3.org/1999/xlink">
<g id="graph0" class="graph" transform="scale(1 1) rotate(0) translate(4 328)">
<title>snakemake_dag</title>
<polygon fill="white" stroke="none" points="-4,4 -4,-328 533,-328 533,4 -4,4"/>
<!-- 0 -->
<g id="node1" class="node">
<title>0</title>
<path fill="none" stroke="#56d8d8" stroke-width="2" d="M402.5,-36C402.5,-36 372.5,-36 372.5,-36 366.5,-36 360.5,-30 360.5,-24 360.5,-24 360.5,-12 360.5,-12 360.5,-6 366.5,0 372.5,0 372.5,0 402.5,0 402.5,0 408.5,0 414.5,-6 414.5,-12 414.5,-12 414.5,-24 414.5,-24 414.5,-30 408.5,-36 402.5,-36"/>
<text text-anchor="middle" x="387.5" y="-15.5" font-family="sans" font-size="10.00">all</text>
</g>
<!-- 1 -->
<g id="node2" class="node">
<title>1</title>
<path fill="none" stroke="#569ad8" stroke-width="2" d="M517,-252C517,-252 428,-252 428,-252 422,-252 416,-246 416,-240 416,-240 416,-228 416,-228 416,-222 422,-216 428,-216 428,-216 517,-216 517,-216 523,-216 529,-222 529,-228 529,-228 529,-240 529,-240 529,-246 523,-252 517,-252"/>
<text text-anchor="middle" x="472.5" y="-231.5" font-family="sans" font-size="10.00">bbduk_trim_decontam</text>
</g>
<!-- 1&#45;&gt;0 -->
<g id="edge3" class="edge">
<title>1&#45;&gt;0</title>
<path fill="none" stroke="grey" stroke-width="2" d="M473.53,-215.8C474.08,-197.52 473.4,-168 465.5,-144 453.04,-106.18 426.9,-68.14 408.32,-44.13"/>
<polygon fill="grey" stroke="grey" stroke-width="2" points="411.04,-41.93 402.1,-36.25 405.54,-46.27 411.04,-41.93"/>
</g>
<!-- 3 -->
<g id="node4" class="node">
<title>3</title>
<path fill="none" stroke="#59d856" stroke-width="2" d="M444,-180C444,-180 331,-180 331,-180 325,-180 319,-174 319,-168 319,-168 319,-156 319,-156 319,-150 325,-144 331,-144 331,-144 444,-144 444,-144 450,-144 456,-150 456,-156 456,-156 456,-168 456,-168 456,-174 450,-180 444,-180"/>
<text text-anchor="middle" x="387.5" y="-159.5" font-family="sans" font-size="10.00">qc_raw_trimmed_decontam</text>
</g>
<!-- 1&#45;&gt;3 -->
<g id="edge6" class="edge">
<title>1&#45;&gt;3</title>
<path fill="none" stroke="grey" stroke-width="2" d="M451.49,-215.7C440.78,-206.88 427.61,-196.03 416,-186.47"/>
<polygon fill="grey" stroke="grey" stroke-width="2" points="418.21,-183.76 408.27,-180.1 413.76,-189.16 418.21,-183.76"/>
</g>
<!-- 2 -->
<g id="node3" class="node">
<title>2</title>
<path fill="none" stroke="#d89556" stroke-width="2" d="M472.5,-324C472.5,-324 386.5,-324 386.5,-324 380.5,-324 374.5,-318 374.5,-312 374.5,-312 374.5,-300 374.5,-300 374.5,-294 380.5,-288 386.5,-288 386.5,-288 472.5,-288 472.5,-288 478.5,-288 484.5,-294 484.5,-300 484.5,-300 484.5,-312 484.5,-312 484.5,-318 478.5,-324 472.5,-324"/>
<text text-anchor="middle" x="429.5" y="-303.5" font-family="sans" font-size="10.00">import_prepared_data</text>
</g>
<!-- 2&#45;&gt;1 -->
<g id="edge4" class="edge">
<title>2&#45;&gt;1</title>
<path fill="none" stroke="grey" stroke-width="2" d="M440.13,-287.7C445.13,-279.56 451.19,-269.69 456.71,-260.7"/>
<polygon fill="grey" stroke="grey" stroke-width="2" points="459.74,-262.46 461.99,-252.1 453.78,-258.79 459.74,-262.46"/>
</g>
<!-- 2&#45;&gt;3 -->
<g id="edge5" class="edge">
<title>2&#45;&gt;3</title>
<path fill="none" stroke="grey" stroke-width="2" d="M421.39,-287.62C416.86,-277.4 411.36,-264.15 407.5,-252 401.04,-231.65 395.84,-208.06 392.36,-190.28"/>
<polygon fill="grey" stroke="grey" stroke-width="2" points="395.77,-189.47 390.47,-180.3 388.89,-190.77 395.77,-189.47"/>
</g>
<!-- 3&#45;&gt;0 -->
<g id="edge1" class="edge">
<title>3&#45;&gt;0</title>
<path fill="none" stroke="grey" stroke-width="2" d="M387.5,-143.87C387.5,-119.67 387.5,-75.21 387.5,-46.39"/>
<polygon fill="grey" stroke="grey" stroke-width="2" points="391,-46.19 387.5,-36.19 384,-46.19 391,-46.19"/>
</g>
<!-- 4 -->
<g id="node5" class="node">
<title>4</title>
<path fill="none" stroke="#97d856" stroke-width="2" d="M315.5,-108C315.5,-108 217.5,-108 217.5,-108 211.5,-108 205.5,-102 205.5,-96 205.5,-96 205.5,-84 205.5,-84 205.5,-78 211.5,-72 217.5,-72 217.5,-72 315.5,-72 315.5,-72 321.5,-72 327.5,-78 327.5,-84 327.5,-84 327.5,-96 327.5,-96 327.5,-102 321.5,-108 315.5,-108"/>
<text text-anchor="middle" x="266.5" y="-87.5" font-family="sans" font-size="10.00">deploy_to_github_pages</text>
</g>
<!-- 3&#45;&gt;4 -->
<g id="edge8" class="edge">
<title>3&#45;&gt;4</title>
<path fill="none" stroke="grey" stroke-width="2" d="M357.9,-143.88C341.93,-134.64 322.04,-123.13 304.89,-113.21"/>
<polygon fill="grey" stroke="grey" stroke-width="2" points="306.62,-110.17 296.21,-108.19 303.12,-116.23 306.62,-110.17"/>
</g>
<!-- 4&#45;&gt;0 -->
<g id="edge2" class="edge">
<title>4&#45;&gt;0</title>
<path fill="none" stroke="grey" stroke-width="2" d="M296.1,-71.88C312.78,-62.23 333.75,-50.1 351.39,-39.89"/>
<polygon fill="grey" stroke="grey" stroke-width="2" points="353.37,-42.79 360.27,-34.75 349.87,-36.73 353.37,-42.79"/>
</g>
<!-- 5 -->
<g id="node6" class="node">
<title>5</title>
<path fill="none" stroke="#d85656" stroke-width="2" d="M202,-180C202,-180 151,-180 151,-180 145,-180 139,-174 139,-168 139,-168 139,-156 139,-156 139,-150 145,-144 151,-144 151,-144 202,-144 202,-144 208,-144 214,-150 214,-156 214,-156 214,-168 214,-168 214,-174 208,-180 202,-180"/>
<text text-anchor="middle" x="176.5" y="-159.5" font-family="sans" font-size="10.00">dot_rulegraph</text>
</g>
<!-- 5&#45;&gt;4 -->
<g id="edge7" class="edge">
<title>5&#45;&gt;4</title>
<path fill="none" stroke="grey" stroke-width="2" d="M198.75,-143.7C210.08,-134.88 224.03,-124.03 236.32,-114.47"/>
<polygon fill="grey" stroke="grey" stroke-width="2" points="238.76,-117.01 244.51,-108.1 234.47,-111.48 238.76,-117.01"/>
</g>
<!-- 6 -->
<g id="node7" class="node">
<title>6</title>
<path fill="none" stroke="#d6d856" stroke-width="2" d="M288.5,-180C288.5,-180 244.5,-180 244.5,-180 238.5,-180 232.5,-174 232.5,-168 232.5,-168 232.5,-156 232.5,-156 232.5,-150 238.5,-144 244.5,-144 244.5,-144 288.5,-144 288.5,-144 294.5,-144 300.5,-150 300.5,-156 300.5,-156 300.5,-168 300.5,-168 300.5,-174 294.5,-180 288.5,-180"/>
<text text-anchor="middle" x="266.5" y="-159.5" font-family="sans" font-size="10.00">project_tree</text>
</g>
<!-- 6&#45;&gt;4 -->
<g id="edge10" class="edge">
<title>6&#45;&gt;4</title>
<path fill="none" stroke="grey" stroke-width="2" d="M266.5,-143.7C266.5,-135.98 266.5,-126.71 266.5,-118.11"/>
<polygon fill="grey" stroke="grey" stroke-width="2" points="270,-118.1 266.5,-108.1 263,-118.1 270,-118.1"/>
</g>
<!-- 7 -->
<g id="node8" class="node">
<title>7</title>
<path fill="none" stroke="#56d89a" stroke-width="2" d="M109,-180C109,-180 12,-180 12,-180 6,-180 0,-174 0,-168 0,-168 0,-156 0,-156 0,-150 6,-144 12,-144 12,-144 109,-144 109,-144 115,-144 121,-150 121,-156 121,-156 121,-168 121,-168 121,-174 115,-180 109,-180"/>
<text text-anchor="middle" x="60.5" y="-159.5" font-family="sans" font-size="10.00">snakemake_html_report</text>
</g>
<!-- 7&#45;&gt;4 -->
<g id="edge9" class="edge">
<title>7&#45;&gt;4</title>
<path fill="none" stroke="grey" stroke-width="2" d="M110.63,-143.97C139.54,-134.14 176.07,-121.73 206.5,-111.39"/>
<polygon fill="grey" stroke="grey" stroke-width="2" points="207.8,-114.64 216.15,-108.11 205.55,-108.01 207.8,-114.64"/>
</g>
</g>
</svg>
