<?xml version="1.0" encoding="UTF-8" standalone="no"?>
<!DOCTYPE svg PUBLIC "-//W3C//DTD SVG 1.1//EN"
 "http://www.w3.org/Graphics/SVG/1.1/DTD/svg11.dtd">
<!-- Generated by graphviz version 6.0.1 (0)
 -->
<!-- Title: snakemake_dag Pages: 1 -->
<svg width="895pt" height="404pt"
 viewBox="0.00 0.00 894.50 404.00" xmlns="http://www.w3.org/2000/svg" xmlns:xlink="http://www.w3.org/1999/xlink">
<g id="graph0" class="graph" transform="scale(1 1) rotate(0) translate(4 400)">
<title>snakemake_dag</title>
<polygon fill="white" stroke="none" points="-4,4 -4,-400 890.5,-400 890.5,4 -4,4"/>
<!-- 0 -->
<g id="node1" class="node">
<title>0</title>
<path fill="none" stroke="#56b9d8" stroke-width="2" d="M364,-36C364,-36 334,-36 334,-36 328,-36 322,-30 322,-24 322,-24 322,-12 322,-12 322,-6 328,0 334,0 334,0 364,0 364,0 370,0 376,-6 376,-12 376,-12 376,-24 376,-24 376,-30 370,-36 364,-36"/>
<text text-anchor="middle" x="349" y="-15.5" font-family="sans" font-size="10.00">all</text>
</g>
<!-- 1 -->
<g id="node2" class="node">
<title>1</title>
<path fill="none" stroke="#78d856" stroke-width="2" d="M181,-108C181,-108 83,-108 83,-108 77,-108 71,-102 71,-96 71,-96 71,-84 71,-84 71,-78 77,-72 83,-72 83,-72 181,-72 181,-72 187,-72 193,-78 193,-84 193,-84 193,-96 193,-96 193,-102 187,-108 181,-108"/>
<text text-anchor="middle" x="132" y="-87.5" font-family="sans" font-size="10.00">deploy_to_github_pages</text>
</g>
<!-- 1&#45;&gt;0 -->
<g id="edge2" class="edge">
<title>1&#45;&gt;0</title>
<path fill="none" stroke="grey" stroke-width="2" d="M184.81,-71.97C224.2,-59.26 277.03,-42.22 312,-30.94"/>
<polygon fill="grey" stroke="grey" stroke-width="2" points="313.36,-34.17 321.8,-27.77 311.21,-27.51 313.36,-34.17"/>
</g>
<!-- 2 -->
<g id="node3" class="node">
<title>2</title>
<path fill="none" stroke="#56d87b" stroke-width="2" d="M82,-180C82,-180 12,-180 12,-180 6,-180 0,-174 0,-168 0,-168 0,-156 0,-156 0,-150 6,-144 12,-144 12,-144 82,-144 82,-144 88,-144 94,-150 94,-156 94,-156 94,-168 94,-168 94,-174 88,-180 82,-180"/>
<text text-anchor="middle" x="47" y="-159.5" font-family="sans" font-size="10.00">get_dot_rulegraph</text>
</g>
<!-- 2&#45;&gt;1 -->
<g id="edge8" class="edge">
<title>2&#45;&gt;1</title>
<path fill="none" stroke="grey" stroke-width="2" d="M68.01,-143.7C78.72,-134.88 91.89,-124.03 103.5,-114.47"/>
<polygon fill="grey" stroke="grey" stroke-width="2" points="105.74,-117.16 111.23,-108.1 101.29,-111.76 105.74,-117.16"/>
</g>
<!-- 3 -->
<g id="node4" class="node">
<title>3</title>
<path fill="none" stroke="#afd856" stroke-width="2" d="M168,-180C168,-180 124,-180 124,-180 118,-180 112,-174 112,-168 112,-168 112,-156 112,-156 112,-150 118,-144 124,-144 124,-144 168,-144 168,-144 174,-144 180,-150 180,-156 180,-156 180,-168 180,-168 180,-174 174,-180 168,-180"/>
<text text-anchor="middle" x="146" y="-159.5" font-family="sans" font-size="10.00">project_tree</text>
</g>
<!-- 3&#45;&gt;1 -->
<g id="edge7" class="edge">
<title>3&#45;&gt;1</title>
<path fill="none" stroke="grey" stroke-width="2" d="M142.54,-143.7C141,-135.98 139.14,-126.71 137.42,-118.11"/>
<polygon fill="grey" stroke="grey" stroke-width="2" points="140.81,-117.22 135.42,-108.1 133.95,-118.6 140.81,-117.22"/>
</g>
<!-- 4 -->
<g id="node5" class="node">
<title>4</title>
<path fill="none" stroke="#d8d356" stroke-width="2" d="M284.5,-252C284.5,-252 239.5,-252 239.5,-252 233.5,-252 227.5,-246 227.5,-240 227.5,-240 227.5,-228 227.5,-228 227.5,-222 233.5,-216 239.5,-216 239.5,-216 284.5,-216 284.5,-216 290.5,-216 296.5,-222 296.5,-228 296.5,-228 296.5,-240 296.5,-240 296.5,-246 290.5,-252 284.5,-252"/>
<text text-anchor="middle" x="262" y="-231.5" font-family="sans" font-size="10.00">multiqc_raw</text>
</g>
<!-- 4&#45;&gt;0 -->
<g id="edge3" class="edge">
<title>4&#45;&gt;0</title>
<path fill="none" stroke="grey" stroke-width="2" d="M252.94,-215.97C237.73,-184.82 211.42,-117.68 240,-72 255.6,-47.07 286.65,-33.57 311.63,-26.44"/>
<polygon fill="grey" stroke="grey" stroke-width="2" points="312.77,-29.76 321.56,-23.85 311,-22.99 312.77,-29.76"/>
</g>
<!-- 5 -->
<g id="node6" class="node">
<title>5</title>
<path fill="none" stroke="#56d863" stroke-width="2" d="M345.5,-324C345.5,-324 304.5,-324 304.5,-324 298.5,-324 292.5,-318 292.5,-312 292.5,-312 292.5,-300 292.5,-300 292.5,-294 298.5,-288 304.5,-288 304.5,-288 345.5,-288 345.5,-288 351.5,-288 357.5,-294 357.5,-300 357.5,-300 357.5,-312 357.5,-312 357.5,-318 351.5,-324 345.5,-324"/>
<text text-anchor="middle" x="325" y="-303.5" font-family="sans" font-size="10.00">fastqc_raw</text>
</g>
<!-- 5&#45;&gt;4 -->
<g id="edge9" class="edge">
<title>5&#45;&gt;4</title>
<path fill="none" stroke="grey" stroke-width="2" d="M309.43,-287.7C301.8,-279.22 292.48,-268.86 284.12,-259.58"/>
<polygon fill="grey" stroke="grey" stroke-width="2" points="286.69,-257.2 277.39,-252.1 281.48,-261.88 286.69,-257.2"/>
</g>
<!-- 6 -->
<g id="node7" class="node">
<title>6</title>
<path fill="none" stroke="#97d856" stroke-width="2" d="M474.5,-396C474.5,-396 409.5,-396 409.5,-396 403.5,-396 397.5,-390 397.5,-384 397.5,-384 397.5,-372 397.5,-372 397.5,-366 403.5,-360 409.5,-360 409.5,-360 474.5,-360 474.5,-360 480.5,-360 486.5,-366 486.5,-372 486.5,-372 486.5,-384 486.5,-384 486.5,-390 480.5,-396 474.5,-396"/>
<text text-anchor="middle" x="442" y="-375.5" font-family="sans" font-size="10.00">import_rawreads</text>
</g>
<!-- 6&#45;&gt;5 -->
<g id="edge10" class="edge">
<title>6&#45;&gt;5</title>
<path fill="none" stroke="grey" stroke-width="2" d="M413.38,-359.88C398.08,-350.72 379.06,-339.34 362.58,-329.48"/>
<polygon fill="grey" stroke="grey" stroke-width="2" points="364.11,-326.32 353.73,-324.19 360.52,-332.33 364.11,-326.32"/>
</g>
<!-- 10 -->
<g id="node11" class="node">
<title>10</title>
<path fill="none" stroke="#d86e56" stroke-width="2" d="M477,-324C477,-324 407,-324 407,-324 401,-324 395,-318 395,-312 395,-312 395,-300 395,-300 395,-294 401,-288 407,-288 407,-288 477,-288 477,-288 483,-288 489,-294 489,-300 489,-300 489,-312 489,-312 489,-318 483,-324 477,-324"/>
<text text-anchor="middle" x="442" y="-303.5" font-family="sans" font-size="10.00">bbduk_trim_reads</text>
</g>
<!-- 6&#45;&gt;10 -->
<g id="edge14" class="edge">
<title>6&#45;&gt;10</title>
<path fill="none" stroke="grey" stroke-width="2" d="M442,-359.7C442,-351.98 442,-342.71 442,-334.11"/>
<polygon fill="grey" stroke="grey" stroke-width="2" points="445.5,-334.1 442,-324.1 438.5,-334.1 445.5,-334.1"/>
</g>
<!-- 14 -->
<g id="node15" class="node">
<title>14</title>
<path fill="none" stroke="#56d8c9" stroke-width="2" d="M678.5,-252C678.5,-252 611.5,-252 611.5,-252 605.5,-252 599.5,-246 599.5,-240 599.5,-240 599.5,-228 599.5,-228 599.5,-222 605.5,-216 611.5,-216 611.5,-216 678.5,-216 678.5,-216 684.5,-216 690.5,-222 690.5,-228 690.5,-228 690.5,-240 690.5,-240 690.5,-246 684.5,-252 678.5,-252"/>
<text text-anchor="middle" x="645" y="-231.5" font-family="sans" font-size="10.00">seqkit_stats_raw</text>
</g>
<!-- 6&#45;&gt;14 -->
<g id="edge20" class="edge">
<title>6&#45;&gt;14</title>
<path fill="none" stroke="grey" stroke-width="2" d="M466.49,-359.87C502.91,-334.39 571.44,-286.45 612.18,-257.96"/>
<polygon fill="grey" stroke="grey" stroke-width="2" points="614.24,-260.79 620.43,-252.19 610.23,-255.05 614.24,-260.79"/>
</g>
<!-- 7 -->
<g id="node8" class="node">
<title>7</title>
<path fill="none" stroke="#568ad8" stroke-width="2" d="M326.5,-108C326.5,-108 261.5,-108 261.5,-108 255.5,-108 249.5,-102 249.5,-96 249.5,-96 249.5,-84 249.5,-84 249.5,-78 255.5,-72 261.5,-72 261.5,-72 326.5,-72 326.5,-72 332.5,-72 338.5,-78 338.5,-84 338.5,-84 338.5,-96 338.5,-96 338.5,-102 332.5,-108 326.5,-108"/>
<text text-anchor="middle" x="294" y="-87.5" font-family="sans" font-size="10.00">multiqc_trimmed</text>
</g>
<!-- 7&#45;&gt;0 -->
<g id="edge5" class="edge">
<title>7&#45;&gt;0</title>
<path fill="none" stroke="grey" stroke-width="2" d="M307.6,-71.7C314.12,-63.39 322.07,-53.28 329.25,-44.14"/>
<polygon fill="grey" stroke="grey" stroke-width="2" points="332.13,-46.13 335.56,-36.1 326.63,-41.81 332.13,-46.13"/>
</g>
<!-- 8 -->
<g id="node9" class="node">
<title>8</title>
<path fill="none" stroke="#56d0d8" stroke-width="2" d="M321,-180C321,-180 261,-180 261,-180 255,-180 249,-174 249,-168 249,-168 249,-156 249,-156 249,-150 255,-144 261,-144 261,-144 321,-144 321,-144 327,-144 333,-150 333,-156 333,-156 333,-168 333,-168 333,-174 327,-180 321,-180"/>
<text text-anchor="middle" x="291" y="-159.5" font-family="sans" font-size="10.00">fastqc_trimmed</text>
</g>
<!-- 8&#45;&gt;7 -->
<g id="edge11" class="edge">
<title>8&#45;&gt;7</title>
<path fill="none" stroke="grey" stroke-width="2" d="M291.74,-143.7C292.07,-135.98 292.47,-126.71 292.84,-118.11"/>
<polygon fill="grey" stroke="grey" stroke-width="2" points="296.34,-118.25 293.27,-108.1 289.34,-117.95 296.34,-118.25"/>
</g>
<!-- 9 -->
<g id="node10" class="node">
<title>9</title>
<path fill="none" stroke="#d8bc56" stroke-width="2" d="M432.5,-252C432.5,-252 365.5,-252 365.5,-252 359.5,-252 353.5,-246 353.5,-240 353.5,-240 353.5,-228 353.5,-228 353.5,-222 359.5,-216 365.5,-216 365.5,-216 432.5,-216 432.5,-216 438.5,-216 444.5,-222 444.5,-228 444.5,-228 444.5,-240 444.5,-240 444.5,-246 438.5,-252 432.5,-252"/>
<text text-anchor="middle" x="399" y="-231.5" font-family="sans" font-size="10.00">bbduk_decontam</text>
</g>
<!-- 9&#45;&gt;8 -->
<g id="edge12" class="edge">
<title>9&#45;&gt;8</title>
<path fill="none" stroke="grey" stroke-width="2" d="M372.58,-215.88C358.59,-206.81 341.22,-195.55 326.11,-185.76"/>
<polygon fill="grey" stroke="grey" stroke-width="2" points="327.82,-182.69 317.52,-180.19 324.01,-188.57 327.82,-182.69"/>
</g>
<!-- 12 -->
<g id="node13" class="node">
<title>12</title>
<path fill="none" stroke="#d85656" stroke-width="2" d="M431,-180C431,-180 363,-180 363,-180 357,-180 351,-174 351,-168 351,-168 351,-156 351,-156 351,-150 357,-144 363,-144 363,-144 431,-144 431,-144 437,-144 443,-150 443,-156 443,-156 443,-168 443,-168 443,-174 437,-180 431,-180"/>
<text text-anchor="middle" x="397" y="-159.5" font-family="sans" font-size="10.00">fastqc_decontam</text>
</g>
<!-- 9&#45;&gt;12 -->
<g id="edge16" class="edge">
<title>9&#45;&gt;12</title>
<path fill="none" stroke="grey" stroke-width="2" d="M398.51,-215.7C398.29,-207.98 398.02,-198.71 397.77,-190.11"/>
<polygon fill="grey" stroke="grey" stroke-width="2" points="401.27,-190 397.49,-180.1 394.28,-190.2 401.27,-190"/>
</g>
<!-- 16 -->
<g id="node17" class="node">
<title>16</title>
<path fill="none" stroke="#56d8a9" stroke-width="2" d="M567,-180C567,-180 473,-180 473,-180 467,-180 461,-174 461,-168 461,-168 461,-156 461,-156 461,-150 467,-144 473,-144 473,-144 567,-144 567,-144 573,-144 579,-150 579,-156 579,-156 579,-168 579,-168 579,-174 573,-180 567,-180"/>
<text text-anchor="middle" x="520" y="-159.5" font-family="sans" font-size="10.00">seqkit_stats_decontam</text>
</g>
<!-- 9&#45;&gt;16 -->
<g id="edge22" class="edge">
<title>9&#45;&gt;16</title>
<path fill="none" stroke="grey" stroke-width="2" d="M428.6,-215.88C444.57,-206.64 464.46,-195.13 481.61,-185.21"/>
<polygon fill="grey" stroke="grey" stroke-width="2" points="483.38,-188.23 490.29,-180.19 479.88,-182.17 483.38,-188.23"/>
</g>
<!-- 10&#45;&gt;9 -->
<g id="edge13" class="edge">
<title>10&#45;&gt;9</title>
<path fill="none" stroke="grey" stroke-width="2" d="M431.37,-287.7C426.37,-279.56 420.31,-269.69 414.79,-260.7"/>
<polygon fill="grey" stroke="grey" stroke-width="2" points="417.72,-258.79 409.51,-252.1 411.76,-262.46 417.72,-258.79"/>
</g>
<!-- 15 -->
<g id="node16" class="node">
<title>15</title>
<path fill="none" stroke="#c6d856" stroke-width="2" d="M564,-252C564,-252 478,-252 478,-252 472,-252 466,-246 466,-240 466,-240 466,-228 466,-228 466,-222 472,-216 478,-216 478,-216 564,-216 564,-216 570,-216 576,-222 576,-228 576,-228 576,-240 576,-240 576,-246 570,-252 564,-252"/>
<text text-anchor="middle" x="521" y="-231.5" font-family="sans" font-size="10.00">seqkit_stats_trimmed</text>
</g>
<!-- 10&#45;&gt;15 -->
<g id="edge21" class="edge">
<title>10&#45;&gt;15</title>
<path fill="none" stroke="grey" stroke-width="2" d="M461.53,-287.7C471.38,-278.97 483.49,-268.24 494.2,-258.75"/>
<polygon fill="grey" stroke="grey" stroke-width="2" points="496.53,-261.36 501.7,-252.1 491.89,-256.12 496.53,-261.36"/>
</g>
<!-- 11 -->
<g id="node12" class="node">
<title>11</title>
<path fill="none" stroke="#5673d8" stroke-width="2" d="M441,-108C441,-108 369,-108 369,-108 363,-108 357,-102 357,-96 357,-96 357,-84 357,-84 357,-78 363,-72 369,-72 369,-72 441,-72 441,-72 447,-72 453,-78 453,-84 453,-84 453,-96 453,-96 453,-102 447,-108 441,-108"/>
<text text-anchor="middle" x="405" y="-87.5" font-family="sans" font-size="10.00">multiqc_decontam</text>
</g>
<!-- 11&#45;&gt;0 -->
<g id="edge6" class="edge">
<title>11&#45;&gt;0</title>
<path fill="none" stroke="grey" stroke-width="2" d="M391.16,-71.7C384.51,-63.39 376.42,-53.28 369.11,-44.14"/>
<polygon fill="grey" stroke="grey" stroke-width="2" points="371.66,-41.73 362.68,-36.1 366.2,-46.1 371.66,-41.73"/>
</g>
<!-- 12&#45;&gt;11 -->
<g id="edge15" class="edge">
<title>12&#45;&gt;11</title>
<path fill="none" stroke="grey" stroke-width="2" d="M398.98,-143.7C399.86,-135.98 400.92,-126.71 401.9,-118.11"/>
<polygon fill="grey" stroke="grey" stroke-width="2" points="405.39,-118.44 403.05,-108.1 398.43,-117.64 405.39,-118.44"/>
</g>
<!-- 13 -->
<g id="node14" class="node">
<title>13</title>
<path fill="none" stroke="#d8a456" stroke-width="2" d="M588.5,-108C588.5,-108 535.5,-108 535.5,-108 529.5,-108 523.5,-102 523.5,-96 523.5,-96 523.5,-84 523.5,-84 523.5,-78 529.5,-72 535.5,-72 535.5,-72 588.5,-72 588.5,-72 594.5,-72 600.5,-78 600.5,-84 600.5,-84 600.5,-96 600.5,-96 600.5,-102 594.5,-108 588.5,-108"/>
<text text-anchor="middle" x="562" y="-87.5" font-family="sans" font-size="10.00">plot_read_hist</text>
</g>
<!-- 13&#45;&gt;0 -->
<g id="edge4" class="edge">
<title>13&#45;&gt;0</title>
<path fill="none" stroke="grey" stroke-width="2" d="M523.43,-76.32C484.36,-63.48 424.36,-43.77 385.9,-31.13"/>
<polygon fill="grey" stroke="grey" stroke-width="2" points="386.73,-27.72 376.14,-27.92 384.55,-34.37 386.73,-27.72"/>
</g>
<!-- 14&#45;&gt;13 -->
<g id="edge17" class="edge">
<title>14&#45;&gt;13</title>
<path fill="none" stroke="grey" stroke-width="2" d="M638.58,-215.99C631.32,-197.61 618.6,-167.77 604,-144 598.13,-134.45 590.8,-124.65 583.91,-116.11"/>
<polygon fill="grey" stroke="grey" stroke-width="2" points="586.57,-113.84 577.5,-108.37 581.18,-118.31 586.57,-113.84"/>
</g>
<!-- 18 -->
<g id="node19" class="node">
<title>18</title>
<path fill="none" stroke="#d88556" stroke-width="2" d="M767,-180C767,-180 685,-180 685,-180 679,-180 673,-174 673,-168 673,-168 673,-156 673,-156 673,-150 679,-144 685,-144 685,-144 767,-144 767,-144 773,-144 779,-150 779,-156 779,-156 779,-168 779,-168 779,-174 773,-180 767,-180"/>
<text text-anchor="middle" x="726" y="-159.5" font-family="sans" font-size="10.00">qiime2_manifest_file</text>
</g>
<!-- 14&#45;&gt;18 -->
<g id="edge25" class="edge">
<title>14&#45;&gt;18</title>
<path fill="none" stroke="grey" stroke-width="2" d="M665.02,-215.7C675.13,-206.97 687.54,-196.24 698.52,-186.75"/>
<polygon fill="grey" stroke="grey" stroke-width="2" points="700.93,-189.29 706.21,-180.1 696.35,-183.99 700.93,-189.29"/>
</g>
<!-- 15&#45;&gt;13 -->
<g id="edge19" class="edge">
<title>15&#45;&gt;13</title>
<path fill="none" stroke="grey" stroke-width="2" d="M553.53,-215.98C566.79,-207.18 580.7,-195.09 588,-180 597.79,-159.76 589.16,-135.12 579.3,-116.9"/>
<polygon fill="grey" stroke="grey" stroke-width="2" points="582.18,-114.89 574.12,-108.01 576.13,-118.42 582.18,-114.89"/>
</g>
<!-- 16&#45;&gt;13 -->
<g id="edge18" class="edge">
<title>16&#45;&gt;13</title>
<path fill="none" stroke="grey" stroke-width="2" d="M530.38,-143.7C535.26,-135.56 541.19,-125.69 546.58,-116.7"/>
<polygon fill="grey" stroke="grey" stroke-width="2" points="549.59,-118.48 551.74,-108.1 543.59,-114.88 549.59,-118.48"/>
</g>
<!-- 17 -->
<g id="node18" class="node">
<title>17</title>
<path fill="none" stroke="#56a2d8" stroke-width="2" d="M778,-108C778,-108 674,-108 674,-108 668,-108 662,-102 662,-96 662,-96 662,-84 662,-84 662,-78 668,-72 674,-72 674,-72 778,-72 778,-72 784,-72 790,-78 790,-84 790,-84 790,-96 790,-96 790,-102 784,-108 778,-108"/>
<text text-anchor="middle" x="726" y="-87.5" font-family="sans" font-size="10.00">qiime2_sample_metadata</text>
</g>
<!-- 17&#45;&gt;0 -->
<g id="edge1" class="edge">
<title>17&#45;&gt;0</title>
<path fill="none" stroke="grey" stroke-width="2" d="M661.62,-77.05C582.33,-62.32 450.31,-37.81 386.2,-25.91"/>
<polygon fill="grey" stroke="grey" stroke-width="2" points="386.62,-22.42 376.14,-24.04 385.34,-29.31 386.62,-22.42"/>
</g>
<!-- 18&#45;&gt;17 -->
<g id="edge24" class="edge">
<title>18&#45;&gt;17</title>
<path fill="none" stroke="grey" stroke-width="2" d="M726,-143.7C726,-135.98 726,-126.71 726,-118.11"/>
<polygon fill="grey" stroke="grey" stroke-width="2" points="729.5,-118.1 726,-108.1 722.5,-118.1 729.5,-118.1"/>
</g>
<!-- 19 -->
<g id="node20" class="node">
<title>19</title>
<path fill="none" stroke="#56d892" stroke-width="2" d="M874.5,-180C874.5,-180 809.5,-180 809.5,-180 803.5,-180 797.5,-174 797.5,-168 797.5,-168 797.5,-156 797.5,-156 797.5,-150 803.5,-144 809.5,-144 809.5,-144 874.5,-144 874.5,-144 880.5,-144 886.5,-150 886.5,-156 886.5,-156 886.5,-168 886.5,-168 886.5,-174 880.5,-180 874.5,-180"/>
<text text-anchor="middle" x="842" y="-159.5" font-family="sans" font-size="10.00">import_metadata</text>
</g>
<!-- 19&#45;&gt;17 -->
<g id="edge23" class="edge">
<title>19&#45;&gt;17</title>
<path fill="none" stroke="grey" stroke-width="2" d="M813.62,-143.88C798.46,-134.72 779.59,-123.34 763.26,-113.48"/>
<polygon fill="grey" stroke="grey" stroke-width="2" points="764.86,-110.36 754.49,-108.19 761.24,-116.35 764.86,-110.36"/>
</g>
</g>
</svg>
