<?xml version="1.0" encoding="UTF-8" standalone="no"?>
<!DOCTYPE svg PUBLIC "-//W3C//DTD SVG 1.1//EN"
 "http://www.w3.org/Graphics/SVG/1.1/DTD/svg11.dtd">
<!-- Generated by graphviz version 6.0.1 (0)
 -->
<!-- Title: snakemake_dag Pages: 1 -->
<svg width="564pt" height="620pt"
 viewBox="0.00 0.00 563.50 620.00" xmlns="http://www.w3.org/2000/svg" xmlns:xlink="http://www.w3.org/1999/xlink">
<g id="graph0" class="graph" transform="scale(1 1) rotate(0) translate(4 616)">
<title>snakemake_dag</title>
<polygon fill="white" stroke="none" points="-4,4 -4,-616 559.5,-616 559.5,4 -4,4"/>
<!-- 0 -->
<g id="node1" class="node">
<title>0</title>
<path fill="none" stroke="#d86e56" stroke-width="2" d="M368,-36C368,-36 338,-36 338,-36 332,-36 326,-30 326,-24 326,-24 326,-12 326,-12 326,-6 332,0 338,0 338,0 368,0 368,0 374,0 380,-6 380,-12 380,-12 380,-24 380,-24 380,-30 374,-36 368,-36"/>
<text text-anchor="middle" x="353" y="-15.5" font-family="sans" font-size="10.00">all</text>
</g>
<!-- 1 -->
<g id="node2" class="node">
<title>1</title>
<path fill="none" stroke="#59d856" stroke-width="2" d="M402,-108C402,-108 304,-108 304,-108 298,-108 292,-102 292,-96 292,-96 292,-84 292,-84 292,-78 298,-72 304,-72 304,-72 402,-72 402,-72 408,-72 414,-78 414,-84 414,-84 414,-96 414,-96 414,-102 408,-108 402,-108"/>
<text text-anchor="middle" x="353" y="-87.5" font-family="sans" font-size="10.00">deploy_to_github_pages</text>
</g>
<!-- 1&#45;&gt;0 -->
<g id="edge1" class="edge">
<title>1&#45;&gt;0</title>
<path fill="none" stroke="grey" stroke-width="2" d="M353,-71.7C353,-63.98 353,-54.71 353,-46.11"/>
<polygon fill="grey" stroke="grey" stroke-width="2" points="356.5,-46.1 353,-36.1 349.5,-46.1 356.5,-46.1"/>
</g>
<!-- 2 -->
<g id="node3" class="node">
<title>2</title>
<path fill="none" stroke="#bed856" stroke-width="2" d="M114,-180C114,-180 12,-180 12,-180 6,-180 0,-174 0,-168 0,-168 0,-156 0,-156 0,-150 6,-144 12,-144 12,-144 114,-144 114,-144 120,-144 126,-150 126,-156 126,-156 126,-168 126,-168 126,-174 120,-180 114,-180"/>
<text text-anchor="middle" x="63" y="-159.5" font-family="sans" font-size="10.00">static_snakemake_report</text>
</g>
<!-- 2&#45;&gt;1 -->
<g id="edge3" class="edge">
<title>2&#45;&gt;1</title>
<path fill="none" stroke="grey" stroke-width="2" d="M126.28,-145.72C172.18,-134.65 234.3,-119.65 281.91,-108.16"/>
<polygon fill="grey" stroke="grey" stroke-width="2" points="282.94,-111.51 291.84,-105.76 281.3,-104.71 282.94,-111.51"/>
</g>
<!-- 3 -->
<g id="node4" class="node">
<title>3</title>
<path fill="none" stroke="#d85656" stroke-width="2" d="M228,-180C228,-180 156,-180 156,-180 150,-180 144,-174 144,-168 144,-168 144,-156 144,-156 144,-150 150,-144 156,-144 156,-144 228,-144 228,-144 234,-144 240,-150 240,-156 240,-156 240,-168 240,-168 240,-174 234,-180 228,-180"/>
<text text-anchor="middle" x="192" y="-159.5" font-family="sans" font-size="10.00">plot_read_sta_hist</text>
</g>
<!-- 3&#45;&gt;1 -->
<g id="edge2" class="edge">
<title>3&#45;&gt;1</title>
<path fill="none" stroke="grey" stroke-width="2" d="M231.39,-143.88C253.39,-134.31 281.01,-122.3 304.36,-112.15"/>
<polygon fill="grey" stroke="grey" stroke-width="2" points="305.97,-115.27 313.74,-108.07 303.18,-108.85 305.97,-115.27"/>
</g>
<!-- 4 -->
<g id="node5" class="node">
<title>4</title>
<path fill="none" stroke="#5673d8" stroke-width="2" d="M163.5,-396C163.5,-396 96.5,-396 96.5,-396 90.5,-396 84.5,-390 84.5,-384 84.5,-384 84.5,-372 84.5,-372 84.5,-366 90.5,-360 96.5,-360 96.5,-360 163.5,-360 163.5,-360 169.5,-360 175.5,-366 175.5,-372 175.5,-372 175.5,-384 175.5,-384 175.5,-390 169.5,-396 163.5,-396"/>
<text text-anchor="middle" x="130" y="-375.5" font-family="sans" font-size="10.00">seqkit_stats_raw</text>
</g>
<!-- 4&#45;&gt;3 -->
<g id="edge10" class="edge">
<title>4&#45;&gt;3</title>
<path fill="none" stroke="grey" stroke-width="2" d="M121.28,-359.83C116.63,-349.69 111.38,-336.44 109,-324 99.98,-276.75 91.71,-257.52 116,-216 123.19,-203.71 134.49,-193.58 146.21,-185.59"/>
<polygon fill="grey" stroke="grey" stroke-width="2" points="148.2,-188.47 154.76,-180.15 144.44,-182.57 148.2,-188.47"/>
</g>
<!-- 5 -->
<g id="node6" class="node">
<title>5</title>
<path fill="none" stroke="#d8bc56" stroke-width="2" d="M338,-468C338,-468 268,-468 268,-468 262,-468 256,-462 256,-456 256,-456 256,-444 256,-444 256,-438 262,-432 268,-432 268,-432 338,-432 338,-432 344,-432 350,-438 350,-444 350,-444 350,-456 350,-456 350,-462 344,-468 338,-468"/>
<text text-anchor="middle" x="303" y="-447.5" font-family="sans" font-size="10.00">get_sra_rawreads</text>
</g>
<!-- 5&#45;&gt;4 -->
<g id="edge11" class="edge">
<title>5&#45;&gt;4</title>
<path fill="none" stroke="grey" stroke-width="2" d="M260.68,-431.88C236.82,-422.22 206.83,-410.09 181.6,-399.88"/>
<polygon fill="grey" stroke="grey" stroke-width="2" points="182.77,-396.57 172.18,-396.07 180.14,-403.06 182.77,-396.57"/>
</g>
<!-- 9 -->
<g id="node10" class="node">
<title>9</title>
<path fill="none" stroke="#568ad8" stroke-width="2" d="M338,-396C338,-396 268,-396 268,-396 262,-396 256,-390 256,-384 256,-384 256,-372 256,-372 256,-366 262,-360 268,-360 268,-360 338,-360 338,-360 344,-360 350,-366 350,-372 350,-372 350,-384 350,-384 350,-390 344,-396 338,-396"/>
<text text-anchor="middle" x="303" y="-375.5" font-family="sans" font-size="10.00">bbduk_trim_reads</text>
</g>
<!-- 5&#45;&gt;9 -->
<g id="edge15" class="edge">
<title>5&#45;&gt;9</title>
<path fill="none" stroke="grey" stroke-width="2" d="M303,-431.7C303,-423.98 303,-414.71 303,-406.11"/>
<polygon fill="grey" stroke="grey" stroke-width="2" points="306.5,-406.1 303,-396.1 299.5,-406.1 306.5,-406.1"/>
</g>
<!-- 14 -->
<g id="node15" class="node">
<title>14</title>
<path fill="none" stroke="#56d873" stroke-width="2" d="M472.5,-396C472.5,-396 431.5,-396 431.5,-396 425.5,-396 419.5,-390 419.5,-384 419.5,-384 419.5,-372 419.5,-372 419.5,-366 425.5,-360 431.5,-360 431.5,-360 472.5,-360 472.5,-360 478.5,-360 484.5,-366 484.5,-372 484.5,-372 484.5,-384 484.5,-384 484.5,-390 478.5,-396 472.5,-396"/>
<text text-anchor="middle" x="452" y="-375.5" font-family="sans" font-size="10.00">fastqc_raw</text>
</g>
<!-- 5&#45;&gt;14 -->
<g id="edge19" class="edge">
<title>5&#45;&gt;14</title>
<path fill="none" stroke="grey" stroke-width="2" d="M339.45,-431.88C360.86,-421.82 388,-409.07 410.26,-398.61"/>
<polygon fill="grey" stroke="grey" stroke-width="2" points="411.91,-401.7 419.48,-394.28 408.94,-395.36 411.91,-401.7"/>
</g>
<!-- 6 -->
<g id="node7" class="node">
<title>6</title>
<path fill="none" stroke="#56d8d8" stroke-width="2" d="M340,-540C340,-540 266,-540 266,-540 260,-540 254,-534 254,-528 254,-528 254,-516 254,-516 254,-510 260,-504 266,-504 266,-504 340,-504 340,-504 346,-504 352,-510 352,-516 352,-516 352,-528 352,-528 352,-534 346,-540 340,-540"/>
<text text-anchor="middle" x="303" y="-519.5" font-family="sans" font-size="10.00">get_sra_accession</text>
</g>
<!-- 6&#45;&gt;5 -->
<g id="edge12" class="edge">
<title>6&#45;&gt;5</title>
<path fill="none" stroke="grey" stroke-width="2" d="M303,-503.7C303,-495.98 303,-486.71 303,-478.11"/>
<polygon fill="grey" stroke="grey" stroke-width="2" points="306.5,-478.1 303,-468.1 299.5,-478.1 306.5,-478.1"/>
</g>
<!-- 7 -->
<g id="node8" class="node">
<title>7</title>
<path fill="none" stroke="#56d88a" stroke-width="2" d="M338.5,-612C338.5,-612 267.5,-612 267.5,-612 261.5,-612 255.5,-606 255.5,-600 255.5,-600 255.5,-588 255.5,-588 255.5,-582 261.5,-576 267.5,-576 267.5,-576 338.5,-576 338.5,-576 344.5,-576 350.5,-582 350.5,-588 350.5,-588 350.5,-600 350.5,-600 350.5,-606 344.5,-612 338.5,-612"/>
<text text-anchor="middle" x="303" y="-591.5" font-family="sans" font-size="10.00">get_sra_metadata</text>
</g>
<!-- 7&#45;&gt;6 -->
<g id="edge13" class="edge">
<title>7&#45;&gt;6</title>
<path fill="none" stroke="grey" stroke-width="2" d="M303,-575.7C303,-567.98 303,-558.71 303,-550.11"/>
<polygon fill="grey" stroke="grey" stroke-width="2" points="306.5,-550.1 303,-540.1 299.5,-550.1 306.5,-550.1"/>
</g>
<!-- 8 -->
<g id="node9" class="node">
<title>8</title>
<path fill="none" stroke="#d8a456" stroke-width="2" d="M216,-324C216,-324 130,-324 130,-324 124,-324 118,-318 118,-312 118,-312 118,-300 118,-300 118,-294 124,-288 130,-288 130,-288 216,-288 216,-288 222,-288 228,-294 228,-300 228,-300 228,-312 228,-312 228,-318 222,-324 216,-324"/>
<text text-anchor="middle" x="173" y="-303.5" font-family="sans" font-size="10.00">seqkit_stats_trimmed</text>
</g>
<!-- 8&#45;&gt;3 -->
<g id="edge8" class="edge">
<title>8&#45;&gt;3</title>
<path fill="none" stroke="grey" stroke-width="2" d="M150.85,-287.87C140.59,-278.52 129.48,-266 124,-252 118.17,-237.1 116.98,-230.38 124,-216 129.81,-204.11 139.71,-194.12 150.18,-186.12"/>
<polygon fill="grey" stroke="grey" stroke-width="2" points="152.5,-188.78 158.64,-180.14 148.46,-183.06 152.5,-188.78"/>
</g>
<!-- 9&#45;&gt;8 -->
<g id="edge14" class="edge">
<title>9&#45;&gt;8</title>
<path fill="none" stroke="grey" stroke-width="2" d="M271.2,-359.88C253.89,-350.55 232.28,-338.92 213.74,-328.94"/>
<polygon fill="grey" stroke="grey" stroke-width="2" points="215.39,-325.85 204.92,-324.19 212.07,-332.01 215.39,-325.85"/>
</g>
<!-- 11 -->
<g id="node12" class="node">
<title>11</title>
<path fill="none" stroke="#56a2d8" stroke-width="2" d="M336.5,-324C336.5,-324 269.5,-324 269.5,-324 263.5,-324 257.5,-318 257.5,-312 257.5,-312 257.5,-300 257.5,-300 257.5,-294 263.5,-288 269.5,-288 269.5,-288 336.5,-288 336.5,-288 342.5,-288 348.5,-294 348.5,-300 348.5,-300 348.5,-312 348.5,-312 348.5,-318 342.5,-324 336.5,-324"/>
<text text-anchor="middle" x="303" y="-303.5" font-family="sans" font-size="10.00">bbduk_decontam</text>
</g>
<!-- 9&#45;&gt;11 -->
<g id="edge17" class="edge">
<title>9&#45;&gt;11</title>
<path fill="none" stroke="grey" stroke-width="2" d="M303,-359.7C303,-351.98 303,-342.71 303,-334.11"/>
<polygon fill="grey" stroke="grey" stroke-width="2" points="306.5,-334.1 303,-324.1 299.5,-334.1 306.5,-334.1"/>
</g>
<!-- 16 -->
<g id="node17" class="node">
<title>16</title>
<path fill="none" stroke="#56d8c1" stroke-width="2" d="M446,-324C446,-324 386,-324 386,-324 380,-324 374,-318 374,-312 374,-312 374,-300 374,-300 374,-294 380,-288 386,-288 386,-288 446,-288 446,-288 452,-288 458,-294 458,-300 458,-300 458,-312 458,-312 458,-318 452,-324 446,-324"/>
<text text-anchor="middle" x="416" y="-303.5" font-family="sans" font-size="10.00">fastqc_trimmed</text>
</g>
<!-- 9&#45;&gt;16 -->
<g id="edge21" class="edge">
<title>9&#45;&gt;16</title>
<path fill="none" stroke="grey" stroke-width="2" d="M330.64,-359.88C345.42,-350.72 363.79,-339.34 379.7,-329.48"/>
<polygon fill="grey" stroke="grey" stroke-width="2" points="381.59,-332.43 388.25,-324.19 377.91,-326.48 381.59,-332.43"/>
</g>
<!-- 10 -->
<g id="node11" class="node">
<title>10</title>
<path fill="none" stroke="#56c1d8" stroke-width="2" d="M239,-252C239,-252 145,-252 145,-252 139,-252 133,-246 133,-240 133,-240 133,-228 133,-228 133,-222 139,-216 145,-216 145,-216 239,-216 239,-216 245,-216 251,-222 251,-228 251,-228 251,-240 251,-240 251,-246 245,-252 239,-252"/>
<text text-anchor="middle" x="192" y="-231.5" font-family="sans" font-size="10.00">seqkit_stats_decontam</text>
</g>
<!-- 10&#45;&gt;3 -->
<g id="edge9" class="edge">
<title>10&#45;&gt;3</title>
<path fill="none" stroke="grey" stroke-width="2" d="M192,-215.7C192,-207.98 192,-198.71 192,-190.11"/>
<polygon fill="grey" stroke="grey" stroke-width="2" points="195.5,-190.1 192,-180.1 188.5,-190.1 195.5,-190.1"/>
</g>
<!-- 11&#45;&gt;10 -->
<g id="edge16" class="edge">
<title>11&#45;&gt;10</title>
<path fill="none" stroke="grey" stroke-width="2" d="M275.85,-287.88C261.47,-278.81 243.62,-267.55 228.09,-257.76"/>
<polygon fill="grey" stroke="grey" stroke-width="2" points="229.58,-254.56 219.26,-252.19 225.85,-260.48 229.58,-254.56"/>
</g>
<!-- 18 -->
<g id="node19" class="node">
<title>18</title>
<path fill="none" stroke="#56d8a2" stroke-width="2" d="M349,-252C349,-252 281,-252 281,-252 275,-252 269,-246 269,-240 269,-240 269,-228 269,-228 269,-222 275,-216 281,-216 281,-216 349,-216 349,-216 355,-216 361,-222 361,-228 361,-228 361,-240 361,-240 361,-246 355,-252 349,-252"/>
<text text-anchor="middle" x="315" y="-231.5" font-family="sans" font-size="10.00">fastqc_decontam</text>
</g>
<!-- 11&#45;&gt;18 -->
<g id="edge23" class="edge">
<title>11&#45;&gt;18</title>
<path fill="none" stroke="grey" stroke-width="2" d="M305.97,-287.7C307.29,-279.98 308.88,-270.71 310.35,-262.11"/>
<polygon fill="grey" stroke="grey" stroke-width="2" points="313.83,-262.55 312.07,-252.1 306.93,-261.37 313.83,-262.55"/>
</g>
<!-- 12 -->
<g id="node13" class="node">
<title>12</title>
<path fill="none" stroke="#a7d856" stroke-width="2" d="M531,-180C531,-180 469,-180 469,-180 463,-180 457,-174 457,-168 457,-168 457,-156 457,-156 457,-150 463,-144 469,-144 469,-144 531,-144 531,-144 537,-144 543,-150 543,-156 543,-156 543,-168 543,-168 543,-174 537,-180 531,-180"/>
<text text-anchor="middle" x="500" y="-159.5" font-family="sans" font-size="10.00">dot_rules_graph</text>
</g>
<!-- 12&#45;&gt;1 -->
<g id="edge5" class="edge">
<title>12&#45;&gt;1</title>
<path fill="none" stroke="grey" stroke-width="2" d="M464.04,-143.88C444.12,-134.39 419.18,-122.51 397.98,-112.42"/>
<polygon fill="grey" stroke="grey" stroke-width="2" points="399.38,-109.21 388.84,-108.07 396.37,-115.53 399.38,-109.21"/>
</g>
<!-- 13 -->
<g id="node14" class="node">
<title>13</title>
<path fill="none" stroke="#d6d856" stroke-width="2" d="M543.5,-252C543.5,-252 498.5,-252 498.5,-252 492.5,-252 486.5,-246 486.5,-240 486.5,-240 486.5,-228 486.5,-228 486.5,-222 492.5,-216 498.5,-216 498.5,-216 543.5,-216 543.5,-216 549.5,-216 555.5,-222 555.5,-228 555.5,-228 555.5,-240 555.5,-240 555.5,-246 549.5,-252 543.5,-252"/>
<text text-anchor="middle" x="521" y="-231.5" font-family="sans" font-size="10.00">multiqc_raw</text>
</g>
<!-- 13&#45;&gt;1 -->
<g id="edge7" class="edge">
<title>13&#45;&gt;1</title>
<path fill="none" stroke="grey" stroke-width="2" d="M495.75,-215.84C481.42,-205.81 463.34,-192.67 448,-180 423,-159.35 396.17,-133.88 377.43,-115.49"/>
<polygon fill="grey" stroke="grey" stroke-width="2" points="379.49,-112.61 369.92,-108.08 374.57,-117.59 379.49,-112.61"/>
</g>
<!-- 14&#45;&gt;13 -->
<g id="edge18" class="edge">
<title>14&#45;&gt;13</title>
<path fill="none" stroke="grey" stroke-width="2" d="M460.32,-359.87C472.24,-335.35 494.26,-290.03 508.24,-261.26"/>
<polygon fill="grey" stroke="grey" stroke-width="2" points="511.42,-262.71 512.65,-252.19 505.13,-259.65 511.42,-262.71"/>
</g>
<!-- 15 -->
<g id="node16" class="node">
<title>15</title>
<path fill="none" stroke="#88d856" stroke-width="2" d="M456.5,-252C456.5,-252 391.5,-252 391.5,-252 385.5,-252 379.5,-246 379.5,-240 379.5,-240 379.5,-228 379.5,-228 379.5,-222 385.5,-216 391.5,-216 391.5,-216 456.5,-216 456.5,-216 462.5,-216 468.5,-222 468.5,-228 468.5,-228 468.5,-240 468.5,-240 468.5,-246 462.5,-252 456.5,-252"/>
<text text-anchor="middle" x="424" y="-231.5" font-family="sans" font-size="10.00">multiqc_trimmed</text>
</g>
<!-- 15&#45;&gt;1 -->
<g id="edge6" class="edge">
<title>15&#45;&gt;1</title>
<path fill="none" stroke="grey" stroke-width="2" d="M415.44,-215.87C403.18,-191.35 380.52,-146.03 366.13,-117.26"/>
<polygon fill="grey" stroke="grey" stroke-width="2" points="369.2,-115.57 361.59,-108.19 362.94,-118.7 369.2,-115.57"/>
</g>
<!-- 16&#45;&gt;15 -->
<g id="edge20" class="edge">
<title>16&#45;&gt;15</title>
<path fill="none" stroke="grey" stroke-width="2" d="M417.98,-287.7C418.86,-279.98 419.92,-270.71 420.9,-262.11"/>
<polygon fill="grey" stroke="grey" stroke-width="2" points="424.39,-262.44 422.05,-252.1 417.43,-261.64 424.39,-262.44"/>
</g>
<!-- 17 -->
<g id="node18" class="node">
<title>17</title>
<path fill="none" stroke="#d88d56" stroke-width="2" d="M351,-180C351,-180 279,-180 279,-180 273,-180 267,-174 267,-168 267,-168 267,-156 267,-156 267,-150 273,-144 279,-144 279,-144 351,-144 351,-144 357,-144 363,-150 363,-156 363,-156 363,-168 363,-168 363,-174 357,-180 351,-180"/>
<text text-anchor="middle" x="315" y="-159.5" font-family="sans" font-size="10.00">multiqc_decontam</text>
</g>
<!-- 17&#45;&gt;1 -->
<g id="edge4" class="edge">
<title>17&#45;&gt;1</title>
<path fill="none" stroke="grey" stroke-width="2" d="M324.39,-143.7C328.76,-135.64 334.06,-125.89 338.9,-116.98"/>
<polygon fill="grey" stroke="grey" stroke-width="2" points="342.02,-118.56 343.71,-108.1 335.87,-115.22 342.02,-118.56"/>
</g>
<!-- 18&#45;&gt;17 -->
<g id="edge22" class="edge">
<title>18&#45;&gt;17</title>
<path fill="none" stroke="grey" stroke-width="2" d="M315,-215.7C315,-207.98 315,-198.71 315,-190.11"/>
<polygon fill="grey" stroke="grey" stroke-width="2" points="318.5,-190.1 315,-180.1 311.5,-190.1 318.5,-190.1"/>
</g>
</g>
</svg>
